<svg width="230" height="230" viewBox="0 0 230 230" fill="none" xmlns="http://www.w3.org/2000/svg">
<path d="M208.434 122.006V104.217C208.424 101.979 207.717 99.7993 206.413 97.9808C205.108 96.1622 203.27 94.7948 201.153 94.0682C200.729 80.8461 197.255 67.9008 191.002 56.2432C184.748 44.5856 175.885 34.5312 165.104 26.865L167.238 24.7088C167.615 24.3327 167.903 23.8776 168.082 23.3766C168.261 22.8755 168.327 22.3409 168.274 21.8114C168.222 21.2818 168.052 20.7706 167.778 20.3146C167.504 19.8586 167.132 19.4691 166.689 19.1744C151.366 9.0076 133.386 3.58496 114.998 3.58496C96.6095 3.58496 78.6294 9.0076 63.3072 19.1744C62.8648 19.4692 62.4932 19.8585 62.2194 20.3142C61.9456 20.7699 61.7762 21.2807 61.7236 21.8097C61.671 22.3388 61.7365 22.8729 61.9153 23.3736C62.094 23.8743 62.3816 24.3291 62.7574 24.7052L64.8885 26.8399C54.1073 34.506 45.244 44.5604 38.9907 56.218C32.7373 67.8756 29.2632 80.8209 28.8396 94.043C26.7186 94.771 24.8775 96.1423 23.5725 97.9658C22.2674 99.7894 21.5635 101.975 21.5586 104.217V122.006C15.0231 125.243 9.77456 130.595 6.66638 137.192C3.5582 143.79 2.77318 151.245 4.43894 158.345C6.1047 165.446 10.1233 171.774 15.8413 176.301C21.5594 180.827 28.6406 183.287 35.9337 183.279H40.1887C40.9293 185.374 42.299 187.189 44.1105 188.476C45.922 189.762 48.0868 190.458 50.3087 190.467H50.5566C51.4374 197.408 54.8168 203.791 60.0627 208.421C65.3086 213.051 72.0617 215.612 79.0587 215.623H86.7565C87.5509 218.7 89.3423 221.427 91.8509 223.377C94.3594 225.328 97.4435 226.393 100.621 226.404H129.371C133.184 226.404 136.84 224.89 139.536 222.194C142.232 219.498 143.746 215.842 143.746 212.029C143.746 208.217 142.232 204.561 139.536 201.865C136.84 199.169 133.184 197.654 129.371 197.654H100.621C97.4435 197.666 94.3594 198.731 91.8509 200.681C89.3423 202.632 87.5509 205.359 86.7565 208.436H79.0587C73.9614 208.43 69.031 206.619 65.1422 203.324C61.2535 200.028 58.6579 195.462 57.816 190.435C60.614 190.352 63.27 189.184 65.2223 187.178C67.1746 185.172 68.2702 182.485 68.2774 179.686V122.186C68.2774 119.326 67.1415 116.584 65.1196 114.562C63.0978 112.54 60.3555 111.404 57.4962 111.404V104.217C57.4875 102.012 56.8032 99.8631 55.5354 98.0594C54.2675 96.2557 52.4772 94.884 50.4057 94.1293C50.8917 83.7281 53.8729 73.5965 59.0975 64.5897C64.3221 55.5828 71.6368 47.965 80.4243 42.3793L83.7054 45.6604C84.2743 46.2338 85.021 46.5972 85.8233 46.6912C86.6256 46.7852 87.436 46.6042 88.1221 46.1779C96.4176 41.8913 105.618 39.6514 114.956 39.6451C124.293 39.6389 133.497 41.8665 141.798 46.1419C142.489 46.5867 143.311 46.7815 144.128 46.6939C144.944 46.6063 145.706 46.2415 146.287 45.6604L149.568 42.3793C158.355 47.965 165.67 55.5828 170.895 64.5897C176.119 73.5965 179.101 83.7281 179.587 94.1293C177.515 94.884 175.725 96.2557 174.457 98.0594C173.189 99.8631 172.505 102.012 172.496 104.217V111.404C169.637 111.404 166.895 112.54 164.873 114.562C162.851 116.584 161.715 119.326 161.715 122.186V179.686C161.715 182.545 162.851 185.287 164.873 187.309C166.895 189.331 169.637 190.467 172.496 190.467H179.684C181.906 190.458 184.07 189.762 185.882 188.476C187.693 187.189 189.063 185.374 189.804 183.279H194.059C201.352 183.287 208.433 180.827 214.151 176.301C219.869 171.774 223.888 165.446 225.553 158.345C227.219 151.245 226.434 143.79 223.326 137.192C220.218 130.595 214.969 125.243 208.434 122.006ZM136.559 212.029C136.559 213.936 135.801 215.764 134.453 217.112C133.106 218.46 131.277 219.217 129.371 219.217H118.59V204.842H129.371C131.277 204.842 133.106 205.599 134.453 206.947C135.801 208.295 136.559 210.123 136.559 212.029ZM100.621 204.842H111.402V219.217H100.621C98.7149 219.217 96.8867 218.46 95.5388 217.112C94.1909 215.764 93.4337 213.936 93.4337 212.029C93.4337 210.123 94.1909 208.295 95.5388 206.947C96.8867 205.599 98.7149 204.842 100.621 204.842ZM10.7774 150.936C10.786 144.266 13.4391 137.873 18.1549 133.157C22.8708 128.441 29.2644 125.788 35.9337 125.779H39.5274V176.092H35.9337C29.2644 176.083 22.8708 173.43 18.1549 168.714C13.4391 163.999 10.786 157.605 10.7774 150.936ZM61.0899 122.186V179.686C61.0899 180.639 60.7113 181.553 60.0373 182.227C59.3634 182.901 58.4493 183.279 57.4962 183.279H50.3087C49.3555 183.279 48.4414 182.901 47.7675 182.227C47.0935 181.553 46.7149 180.639 46.7149 179.686V122.186C46.7149 121.233 47.0935 120.318 47.7675 119.645C48.4414 118.971 49.3555 118.592 50.3087 118.592H57.4962C58.4493 118.592 59.3634 118.971 60.0373 119.645C60.7113 120.318 61.0899 121.233 61.0899 122.186ZM40.1887 118.592H35.9337C33.5141 118.599 31.1031 118.879 28.7461 119.426V104.217C28.7461 103.264 29.1248 102.35 29.7987 101.676C30.4727 101.002 31.3868 100.623 32.3399 100.623H46.7149C47.668 100.623 48.5821 101.002 49.2561 101.676C49.93 102.35 50.3087 103.264 50.3087 104.217V111.404C48.0868 111.414 45.922 112.109 44.1105 113.396C42.299 114.682 40.9293 116.497 40.1887 118.592ZM43.2433 93.4357H36.0558C36.585 81.2632 39.933 69.3799 45.8363 58.7215C51.7395 48.0632 60.0366 38.921 70.0743 32.0149L75.2277 37.1683C65.883 43.4086 58.125 51.7454 52.572 61.5142C47.0191 71.2831 43.8247 82.2139 43.2433 93.4357ZM143.06 38.728C134.302 34.5244 124.711 32.342 114.996 32.342C105.281 32.342 95.6908 34.5244 86.9326 38.728L71.0194 22.8149C84.3355 14.9361 99.5238 10.7794 114.996 10.7794C130.469 10.7794 145.657 14.9361 158.973 22.8149L143.06 38.728ZM154.783 37.1683L159.936 32.0149C169.972 38.9217 178.268 48.0643 184.17 58.7226C190.072 69.3809 193.419 81.2639 193.947 93.4357H186.76C186.179 82.2145 182.986 71.2841 177.434 61.5153C171.883 51.7465 164.126 43.4094 154.783 37.1683ZM179.684 104.217C179.684 103.264 180.062 102.35 180.736 101.676C181.41 101.002 182.324 100.623 183.277 100.623H197.652C198.606 100.623 199.52 101.002 200.194 101.676C200.868 102.35 201.246 103.264 201.246 104.217V119.426C198.889 118.879 196.478 118.599 194.059 118.592H189.804C189.063 116.497 187.693 114.682 185.882 113.396C184.07 112.109 181.906 111.414 179.684 111.404V104.217ZM183.277 179.686C183.277 180.639 182.899 181.553 182.225 182.227C181.551 182.901 180.637 183.279 179.684 183.279H172.496C171.543 183.279 170.629 182.901 169.955 182.227C169.281 181.553 168.902 180.639 168.902 179.686V122.186C168.902 121.233 169.281 120.318 169.955 119.645C170.629 118.971 171.543 118.592 172.496 118.592H179.684C180.637 118.592 181.551 118.971 182.225 119.645C182.899 120.318 183.277 121.233 183.277 122.186V179.686ZM194.059 176.092H190.465V125.779H194.059C200.731 125.779 207.129 128.43 211.847 133.148C216.565 137.865 219.215 144.264 219.215 150.936C219.215 157.608 216.565 164.006 211.847 168.724C207.129 173.442 200.731 176.092 194.059 176.092Z" fill="#333337"/>
</svg>
