<svg width="230" height="230" viewBox="0 0 230 230" fill="none" xmlns="http://www.w3.org/2000/svg">
<path d="M215.625 3.59375H136.562C135.609 3.59375 134.695 3.97238 134.021 4.64633C133.347 5.32029 132.969 6.23438 132.969 7.1875V43.125C132.969 44.0781 133.347 44.9922 134.021 45.6662C134.695 46.3401 135.609 46.7188 136.562 46.7188H138.323C142.447 46.7122 146.513 45.7529 150.204 43.9156C151.612 43.2379 153.193 43.008 154.735 43.2566C156.277 43.5053 157.706 44.2207 158.829 45.3064C160.676 47.169 161.714 49.6843 161.719 52.307V55.5055C161.711 58.129 160.67 60.644 158.822 62.5061C157.698 63.5893 156.269 64.3032 154.728 64.5524C153.186 64.8016 151.606 64.5741 150.197 63.9005C146.508 62.0633 142.445 61.1027 138.323 61.0938H136.562C135.609 61.0938 134.695 61.4724 134.021 62.1463C133.347 62.8203 132.969 63.7344 132.969 64.6875V97.0312H131.37C129.125 97.0243 126.902 97.4633 124.828 98.3226C122.755 99.182 120.872 100.445 119.291 102.037C117.926 103.393 116.844 105.007 116.107 106.784C115.371 108.561 114.994 110.467 115 112.391C115.004 114.665 115.533 116.907 116.545 118.942C117.612 121.079 118.277 123.394 118.508 125.77H89.8438V97.1175C92.227 97.3473 94.5477 98.0136 96.6898 99.0833C99.45 100.4 102.546 100.842 105.564 100.351C108.583 99.8608 111.379 98.4605 113.58 96.3377C115.173 94.7552 116.437 92.8726 117.297 90.7987C118.158 88.7248 118.598 86.5008 118.594 84.2555V81.057C118.6 78.8124 118.161 76.5889 117.302 74.5151C116.444 72.4412 115.182 70.5582 113.591 68.9748C111.389 66.8443 108.587 65.4395 105.562 64.9493C102.537 64.459 99.4345 64.907 96.6719 66.2328C94.5351 67.2993 92.2207 67.9644 89.8438 68.195V43.125C89.8437 40.2656 88.7079 37.5234 86.686 35.5015C84.6641 33.4796 81.9219 32.3438 79.0625 32.3438H14.375C11.5156 32.3438 8.77338 33.4796 6.7515 35.5015C4.72963 37.5234 3.59375 40.2656 3.59375 43.125V215.625C3.59375 218.484 4.72963 221.227 6.7515 223.248C8.77338 225.27 11.5156 226.406 14.375 226.406H165.312C168.172 226.406 170.914 225.27 172.936 223.248C174.958 221.227 176.094 218.484 176.094 215.625V129.375C176.094 128.422 175.715 127.508 175.041 126.834C174.367 126.16 173.453 125.781 172.5 125.781H147.43C147.661 123.404 148.326 121.09 149.392 118.953C150.406 116.914 150.935 114.668 150.938 112.391C150.944 109.478 150.075 106.631 148.443 104.219H172.5C173.453 104.219 174.367 103.84 175.041 103.166C175.715 102.492 176.094 101.578 176.094 100.625V98.8641C176.089 94.7377 175.128 90.6686 173.287 86.9759C172.771 85.9398 172.502 84.7984 172.5 83.6409C172.497 82.6613 172.689 81.6909 173.064 80.7859C173.439 79.8809 173.99 79.0594 174.685 78.3689C175.601 77.4461 176.691 76.7145 177.892 76.2167C179.094 75.7188 180.382 75.4646 181.682 75.4688H184.88C186.181 75.4646 187.469 75.7188 188.67 76.2167C189.871 76.7145 190.961 77.4461 191.877 78.3689C192.572 79.0594 193.123 79.8809 193.498 80.7859C193.873 81.6909 194.065 82.6613 194.062 83.6409C194.061 84.7984 193.791 85.9398 193.275 86.9759C191.434 90.6686 190.473 94.7377 190.469 98.8641V100.625C190.469 101.578 190.847 102.492 191.521 103.166C192.195 103.84 193.109 104.219 194.062 104.219H222.812C223.766 104.219 224.68 103.84 225.354 103.166C226.028 102.492 226.406 101.578 226.406 100.625V14.375C226.406 11.5156 225.27 8.77338 223.248 6.7515C221.227 4.72963 218.484 3.59375 215.625 3.59375ZM10.7812 43.125C10.7812 42.1719 11.1599 41.2578 11.8338 40.5838C12.5078 39.9099 13.4219 39.5312 14.375 39.5312H79.0625C80.0156 39.5312 80.9297 39.9099 81.6037 40.5838C82.2776 41.2578 82.6562 42.1719 82.6562 43.125V71.875C82.6562 72.8281 83.0349 73.7422 83.7088 74.4162C84.3828 75.0901 85.2969 75.4688 86.25 75.4688H88.0109C92.1343 75.4622 96.2004 74.5029 99.8919 72.6656C101.3 71.989 102.881 71.7595 104.423 72.0082C105.964 72.2568 107.393 72.9716 108.517 74.0564C110.363 75.919 111.402 78.4343 111.406 81.057V84.2555C111.398 86.879 110.358 89.394 108.51 91.2561C107.385 92.3393 105.957 93.0532 104.415 93.3024C102.874 93.5516 101.293 93.3241 99.8847 92.6505C96.1956 90.8133 92.1322 89.8527 88.0109 89.8438H86.25C85.2969 89.8438 84.3828 90.2224 83.7088 90.8963C83.0349 91.5703 82.6562 92.4844 82.6562 93.4375V125.781H57.5C56.5469 125.781 55.6328 126.16 54.9588 126.834C54.2849 127.508 53.9062 128.422 53.9062 129.375V131.136C53.9109 135.262 54.8716 139.331 56.713 143.024C57.2289 144.06 57.4983 145.202 57.5 146.359C57.5027 147.339 57.311 148.309 56.9359 149.214C56.5609 150.119 56.0099 150.941 55.315 151.631C54.399 152.554 53.3087 153.285 52.1075 153.783C50.9064 154.281 49.6182 154.535 48.318 154.531H45.1195C43.8193 154.535 42.5311 154.281 41.33 153.783C40.1288 153.285 39.0385 152.554 38.1225 151.631C37.4276 150.941 36.8766 150.119 36.5016 149.214C36.1265 148.309 35.9348 147.339 35.9375 146.359C35.9392 145.202 36.2086 144.06 36.7245 143.024C38.5659 139.331 39.5266 135.262 39.5312 131.136V129.375C39.5312 128.422 39.1526 127.508 38.4787 126.834C37.8047 126.16 36.8906 125.781 35.9375 125.781H10.7812V43.125ZM82.6562 186.875V219.219H14.375C13.4219 219.219 12.5078 218.84 11.8338 218.166C11.1599 217.492 10.7813 216.578 10.7812 215.625V132.969H32.2575C32.0269 135.346 31.3618 137.66 30.2953 139.797C29.2811 141.836 28.7522 144.082 28.75 146.359C28.7444 148.283 29.1205 150.188 29.8565 151.965C30.5924 153.743 31.6735 155.356 33.0373 156.713C34.6198 158.305 36.5026 159.568 38.5766 160.427C40.6506 161.286 42.8746 161.725 45.1195 161.719H48.318C50.5625 161.726 52.786 161.287 54.8595 160.427C56.9329 159.568 58.815 158.305 60.3966 156.713C61.7615 155.357 62.8436 153.743 63.5802 151.966C64.3168 150.189 64.6932 148.283 64.6875 146.359C64.6836 144.085 64.1548 141.843 63.1422 139.808C62.0757 137.671 61.4106 135.356 61.18 132.98H82.6562V165.323C82.6562 166.276 83.0349 167.19 83.7088 167.864C84.3828 168.538 85.2969 168.917 86.25 168.917H88.0109C92.1343 168.911 96.2004 167.951 99.8919 166.114C101.3 165.437 102.881 165.208 104.423 165.456C105.964 165.705 107.393 166.42 108.517 167.505C110.361 169.365 111.399 171.875 111.406 174.495V177.693C111.398 180.317 110.358 182.832 108.51 184.694C107.386 185.778 105.957 186.492 104.416 186.741C102.874 186.991 101.293 186.763 99.8847 186.088C96.1956 184.251 92.1322 183.29 88.0109 183.281H86.25C85.2969 183.281 84.3828 183.66 83.7088 184.334C83.0349 185.008 82.6562 185.922 82.6562 186.875ZM168.906 132.969V215.625C168.906 216.578 168.528 217.492 167.854 218.166C167.18 218.84 166.266 219.219 165.312 219.219H89.8438V190.555C92.227 190.785 94.5477 191.451 96.6898 192.521C99.45 193.837 102.546 194.28 105.564 193.789C108.583 193.298 111.379 191.898 113.58 189.775C115.173 188.193 116.437 186.31 117.297 184.236C118.158 182.162 118.598 179.938 118.594 177.693V174.495C118.6 172.25 118.161 170.026 117.302 167.953C116.444 165.879 115.182 163.996 113.591 162.412C111.389 160.282 108.587 158.877 105.562 158.387C102.537 157.897 99.4345 158.344 96.6719 159.67C94.5351 160.737 92.2207 161.402 89.8438 161.633V132.969H122.188C123.141 132.969 124.055 132.59 124.729 131.916C125.403 131.242 125.781 130.328 125.781 129.375V127.614C125.777 123.488 124.816 119.419 122.975 115.726C122.459 114.69 122.189 113.548 122.188 112.391C122.185 111.411 122.377 110.441 122.752 109.536C123.127 108.631 123.678 107.809 124.373 107.119C125.289 106.196 126.379 105.465 127.58 104.967C128.781 104.469 130.069 104.215 131.37 104.219H134.568C135.868 104.215 137.156 104.469 138.358 104.967C139.559 105.465 140.649 106.196 141.565 107.119C142.26 107.809 142.811 108.631 143.186 109.536C143.561 110.441 143.753 111.411 143.75 112.391C143.748 113.548 143.479 114.69 142.963 115.726C141.122 119.419 140.161 123.488 140.156 127.614V129.375C140.156 130.328 140.535 131.242 141.209 131.916C141.883 132.59 142.797 132.969 143.75 132.969H168.906ZM219.219 97.0312H197.742C197.973 94.6543 198.638 92.3399 199.705 90.2031C200.719 88.1642 201.248 85.9182 201.25 83.6409C201.256 81.7174 200.879 79.8118 200.144 78.0346C199.408 76.2574 198.326 74.6439 196.963 73.2873C195.38 71.6949 193.497 70.4324 191.423 69.573C189.349 68.7137 187.125 68.2746 184.88 68.2812H181.682C179.438 68.2743 177.214 68.7133 175.141 69.5726C173.067 70.432 171.185 71.6947 169.603 73.2873C168.239 74.6432 167.156 76.2566 166.42 78.0339C165.683 79.8112 165.307 81.717 165.312 83.6409C165.316 85.9146 165.845 88.1566 166.858 90.1923C167.924 92.3291 168.589 94.6435 168.82 97.0205H140.156V68.3675C142.54 68.5973 144.86 69.2636 147.002 70.3333C149.762 71.6507 152.859 72.0937 155.877 71.603C158.896 71.1123 161.692 69.7114 163.893 67.5877C165.486 66.0052 166.749 64.1226 167.61 62.0487C168.47 59.9748 168.911 57.7508 168.906 55.5055V52.307C168.912 50.0624 168.473 47.8389 167.615 45.7651C166.756 43.6912 165.495 41.8082 163.904 40.2248C161.703 38.1013 158.906 36.7007 155.888 36.2107C152.869 35.7206 149.773 36.1645 147.013 37.4828C144.876 38.5493 142.562 39.2144 140.185 39.445V10.7812H215.625C216.578 10.7813 217.492 11.1599 218.166 11.8338C218.84 12.5078 219.219 13.4219 219.219 14.375V97.0312Z" fill="#333337"/>
<path d="M125.781 32.3438H97.0312V39.5312H125.781V32.3438Z" fill="#333337"/>
<path d="M125.781 46.7188H97.0312V53.9062H125.781V46.7188Z" fill="#333337"/>
<path d="M219.219 111.406H212.031V140.156H219.219V111.406Z" fill="#333337"/>
<path d="M204.844 111.406H197.656V140.156H204.844V111.406Z" fill="#333337"/>
</svg>
