<svg width="230" height="230" viewBox="0 0 230 230" fill="none" xmlns="http://www.w3.org/2000/svg">
<path d="M61.0938 97.0313C68.2015 97.0313 75.1497 94.9236 81.0596 90.9747C86.9694 87.0258 91.5756 81.4132 94.2957 74.8465C97.0157 68.2797 97.7274 61.0539 96.3407 54.0827C94.9541 47.1115 91.5313 40.7081 86.5054 35.6821C81.4795 30.6562 75.076 27.2335 68.1048 25.8468C61.1336 24.4601 53.9078 25.1718 47.3411 27.8918C40.7743 30.6119 35.1617 35.2181 31.2128 41.128C27.2639 47.0379 25.1563 53.986 25.1562 61.0938C25.1667 70.6218 28.9563 79.7565 35.6937 86.4939C42.431 93.2312 51.5657 97.0208 61.0938 97.0313ZM61.0938 32.3438C66.78 32.3438 72.3385 34.0299 77.0664 37.189C81.7943 40.3481 85.4793 44.8382 87.6553 50.0916C89.8313 55.345 90.4007 61.1257 89.2913 66.7026C88.182 72.2796 85.4438 77.4023 81.4231 81.4231C77.4023 85.4438 72.2795 88.182 66.7026 89.2913C61.1256 90.4007 55.345 89.8313 50.0916 87.6553C44.8382 85.4793 40.3481 81.7943 37.189 77.0664C34.0299 72.3385 32.3438 66.78 32.3438 61.0938C32.3523 53.4714 35.3841 46.1637 40.7739 40.7739C46.1637 35.3841 53.4714 32.3523 61.0938 32.3438Z" fill="#333337"/>
<path d="M57.5 82.6562V86.25H64.6875V82.6562C67.5469 82.6562 70.2891 81.5204 72.311 79.4985C74.3329 77.4766 75.4687 74.7344 75.4688 71.875V68.2812C75.4687 65.4219 74.3329 62.6796 72.311 60.6578C70.2891 58.6359 67.5469 57.5 64.6875 57.5V46.7188C65.6406 46.7188 66.5547 47.0974 67.2287 47.7713C67.9026 48.4453 68.2812 49.3594 68.2812 50.3125V53.9062H75.4688V50.3125C75.4687 47.4531 74.3329 44.7109 72.311 42.689C70.2891 40.6671 67.5469 39.5312 64.6875 39.5312V35.9375H57.5V39.5312C54.6406 39.5312 51.8984 40.6671 49.8765 42.689C47.8546 44.7109 46.7188 47.4531 46.7188 50.3125V53.9062C46.7188 56.7656 47.8546 59.5079 49.8765 61.5297C51.8984 63.5516 54.6406 64.6875 57.5 64.6875V75.4688C56.5469 75.4688 55.6328 75.0901 54.9588 74.4162C54.2849 73.7422 53.9062 72.8281 53.9062 71.875V68.2812H46.7188V71.875C46.7188 74.7344 47.8546 77.4766 49.8765 79.4985C51.8984 81.5204 54.6406 82.6562 57.5 82.6562ZM53.9062 53.9062V50.3125C53.9062 49.3594 54.2849 48.4453 54.9588 47.7713C55.6328 47.0974 56.5469 46.7188 57.5 46.7188V57.5C56.5469 57.5 55.6328 57.1214 54.9588 56.4474C54.2849 55.7735 53.9062 54.8594 53.9062 53.9062ZM64.6875 64.6875C65.6406 64.6875 66.5547 65.0661 67.2287 65.7401C67.9026 66.414 68.2812 67.3281 68.2812 68.2812V71.875C68.2812 72.8281 67.9026 73.7422 67.2287 74.4162C66.5547 75.0901 65.6406 75.4688 64.6875 75.4688V64.6875Z" fill="#333337"/>
<path d="M161.719 68.2812H104.219V75.4688H161.719V68.2812Z" fill="#333337"/>
<path d="M147.344 197.656H75.4688V204.844H147.344V197.656Z" fill="#333337"/>
<path d="M136.563 100.625C129.455 100.625 122.507 102.733 116.597 106.682C110.687 110.63 106.081 116.243 103.361 122.81C100.641 129.377 99.9289 136.602 101.316 143.574C102.702 150.545 106.125 156.948 111.151 161.974C116.177 167 122.58 170.423 129.551 171.809C136.523 173.196 143.748 172.484 150.315 169.764C156.882 167.044 162.495 162.438 166.443 156.528C170.392 150.618 172.5 143.67 172.5 136.562C172.49 127.034 168.7 117.9 161.963 111.162C155.225 104.425 146.091 100.635 136.563 100.625ZM136.563 165.312C129.579 165.311 122.837 162.755 117.609 158.125H150.938V150.937H111.701C110.398 148.687 109.408 146.268 108.758 143.75H150.938V136.562H107.813C107.821 134.136 108.139 131.721 108.758 129.375H150.938V122.187H111.701C114.225 117.816 117.856 114.185 122.228 111.662C126.6 109.139 131.56 107.811 136.608 107.813C141.657 107.814 146.615 109.145 150.986 111.671C155.357 114.197 158.985 117.83 161.507 122.203C164.028 126.577 165.353 131.537 165.349 136.585C165.345 141.634 164.012 146.592 161.484 150.961C158.955 155.331 155.321 158.958 150.946 161.477C146.572 163.996 141.611 165.319 136.563 165.312Z" fill="#333337"/>
<path d="M222.374 202.921L195.062 175.609C196.531 172.909 197.083 169.805 196.635 166.765C196.187 163.724 194.764 160.911 192.578 158.75L187.594 153.769C190.721 144.611 191.302 134.775 189.277 125.312C187.252 115.848 182.695 107.112 176.094 100.036V50.3125C176.094 49.3595 175.715 48.4455 175.041 47.7717L131.916 4.64672C131.242 3.97271 130.328 3.59395 129.375 3.59375H7.1875C6.23438 3.59375 5.32029 3.97238 4.64633 4.64633C3.97238 5.32029 3.59375 6.23438 3.59375 7.1875V222.812C3.59375 223.766 3.97238 224.68 4.64633 225.354C5.32029 226.028 6.23438 226.406 7.1875 226.406H172.5C173.453 226.406 174.367 226.028 175.041 225.354C175.715 224.68 176.094 223.766 176.094 222.812V195.55L202.921 222.378C204.196 223.668 205.713 224.694 207.386 225.396C209.058 226.098 210.853 226.462 212.667 226.468C214.481 226.474 216.278 226.12 217.955 225.429C219.632 224.737 221.155 223.721 222.438 222.438C223.72 221.155 224.737 219.631 225.428 217.954C226.119 216.277 226.472 214.48 226.466 212.666C226.46 210.852 226.096 209.057 225.393 207.385C224.691 205.713 223.665 204.195 222.374 202.921ZM187.493 163.825C188.841 165.173 189.598 167 189.598 168.906C189.598 170.812 188.841 172.64 187.493 173.988L173.988 187.493C172.64 188.841 170.812 189.598 168.906 189.598C167 189.598 165.173 188.841 163.825 187.493L160.921 184.589C171.109 179.393 179.393 171.109 184.589 160.921L187.493 163.825ZM136.562 183.281C127.322 183.281 118.29 180.541 110.607 175.408C102.924 170.274 96.936 162.978 93.4 154.441C89.864 145.904 88.9388 136.511 90.7414 127.448C92.5441 118.386 96.9936 110.061 103.527 103.527C110.061 96.9936 118.386 92.5441 127.448 90.7414C136.511 88.9388 145.904 89.864 154.441 93.4C162.978 96.936 170.274 102.924 175.408 110.607C180.541 118.29 183.281 127.322 183.281 136.562C183.267 148.949 178.34 160.824 169.582 169.582C160.824 178.34 148.949 183.267 136.562 183.281ZM132.969 15.8628L163.825 46.7188H132.969V15.8628ZM168.906 219.219H10.7812V10.7812H125.781V50.3125C125.781 51.2656 126.16 52.1797 126.834 52.8537C127.508 53.5276 128.422 53.9062 129.375 53.9062H168.906V93.5381C162.97 89.0437 156.164 85.8335 148.921 84.1116C141.677 82.3897 134.155 82.1938 126.831 83.5363C119.508 84.8788 112.544 87.7304 106.382 91.9097C100.221 96.0891 94.996 101.505 91.0405 107.812H17.9687V115H87.188C86.1808 117.333 85.3402 119.735 84.6723 122.188H17.9687V129.375H83.1917C82.853 131.756 82.6741 134.157 82.6562 136.562H17.9687V143.75H83.1917C83.518 146.176 84.0091 148.578 84.6616 150.938H17.9687V158.125H87.188C92.5541 170.504 102.384 180.408 114.721 185.869C127.058 191.329 140.999 191.945 153.769 187.594L158.743 192.567C160.077 193.903 161.661 194.963 163.405 195.685C165.149 196.407 167.019 196.778 168.906 196.776V219.219ZM212.646 219.219C211.783 219.221 210.928 219.052 210.13 218.722C209.333 218.392 208.608 217.907 207.999 217.296L181.175 190.469L190.469 181.175L217.296 208.003C218.214 208.922 218.839 210.093 219.091 211.368C219.344 212.642 219.213 213.963 218.715 215.163C218.218 216.363 217.376 217.389 216.295 218.111C215.215 218.833 213.945 219.218 212.646 219.219Z" fill="#333337"/>
</svg>
