<svg width="230" height="230" viewBox="0 0 230 230" fill="none" xmlns="http://www.w3.org/2000/svg">
<path d="M32.3438 204.844H50.3125V222.812C50.3125 223.766 50.6911 224.68 51.3651 225.354C52.039 226.028 52.9531 226.406 53.9062 226.406H197.656C198.609 226.406 199.523 226.028 200.197 225.354C200.871 224.68 201.25 223.766 201.25 222.812V28.75C201.25 27.7969 200.871 26.8828 200.197 26.2088C199.523 25.5349 198.609 25.1562 197.656 25.1562H179.688V7.1875C179.688 6.23438 179.309 5.32029 178.635 4.64633C177.961 3.97238 177.047 3.59375 176.094 3.59375H64.6875C63.7345 3.59395 62.8205 3.97271 62.1467 4.64672L29.803 36.9905C29.129 37.6643 28.7502 38.5782 28.75 39.5312V201.25C28.75 202.203 29.1286 203.117 29.8026 203.791C30.4765 204.465 31.3906 204.844 32.3438 204.844ZM179.688 201.25V32.3438H194.062V219.219H57.5V204.844H176.094C177.047 204.844 177.961 204.465 178.635 203.791C179.309 203.117 179.688 202.203 179.688 201.25ZM172.5 197.656H35.9375V43.125H64.6875C65.6406 43.125 66.5547 42.7464 67.2287 42.0724C67.9026 41.3985 68.2812 40.4844 68.2812 39.5312V10.7812H172.5V197.656ZM41.0191 35.9375L61.0938 15.8628V35.9375H41.0191Z" fill="#333337"/>
<path d="M71.875 122.188H64.6875V53.9062C64.6875 52.9531 64.3089 52.039 63.6349 51.3651C62.961 50.6911 62.0469 50.3125 61.0938 50.3125H46.7188C45.7656 50.3125 44.8515 50.6911 44.1776 51.3651C43.5036 52.039 43.125 52.9531 43.125 53.9062V140.156C43.125 141.109 43.5036 142.023 44.1776 142.697C44.8515 143.371 45.7656 143.75 46.7188 143.75H161.719C162.672 143.75 163.586 143.371 164.26 142.697C164.934 142.023 165.312 141.109 165.312 140.156V125.781C165.312 124.828 164.934 123.914 164.26 123.24C163.586 122.566 162.672 122.188 161.719 122.188H150.938V43.125C150.938 42.1719 150.559 41.2578 149.885 40.5838C149.211 39.9099 148.297 39.5312 147.344 39.5312H132.969C132.016 39.5312 131.102 39.9099 130.428 40.5838C129.754 41.2578 129.375 42.1719 129.375 43.125V57.5H122.188V43.125C122.188 42.1719 121.809 41.2578 121.135 40.5838C120.461 39.9099 119.547 39.5312 118.594 39.5312H104.219C103.266 39.5312 102.352 39.9099 101.678 40.5838C101.004 41.2578 100.625 42.1719 100.625 43.125V57.5H89.8438C88.8906 57.5 87.9765 57.8786 87.3026 58.5526C86.6286 59.2265 86.25 60.1406 86.25 61.0938V79.0625H75.4688C74.5156 79.0625 73.6015 79.4411 72.9276 80.1151C72.2536 80.789 71.875 81.7031 71.875 82.6562V122.188ZM158.125 136.562H50.3125V57.5H57.5V125.781C57.5 126.734 57.8786 127.648 58.5526 128.322C59.2265 128.996 60.1406 129.375 61.0938 129.375H158.125V136.562ZM136.562 46.7188H143.75V122.188H136.562V46.7188ZM129.375 64.6875V122.188H122.188V64.6875H129.375ZM107.812 46.7188H115V122.188H107.812V46.7188ZM93.4375 64.6875H100.625V122.188H93.4375V64.6875ZM86.25 86.25V122.188H79.0625V86.25H86.25Z" fill="#333337"/>
<path d="M50.3125 150.938H158.125V158.125H50.3125V150.938Z" fill="#333337"/>
<path d="M50.3125 165.312H158.125V172.5H50.3125V165.312Z" fill="#333337"/>
<path d="M50.3125 179.688H158.125V186.875H50.3125V179.688Z" fill="#333337"/>
</svg>
