<svg width="60" height="60" viewBox="0 0 60 60" fill="none" xmlns="http://www.w3.org/2000/svg">
<g clip-path="url(#clip0_196_2529)">
<path fill-rule="evenodd" clip-rule="evenodd" d="M34.4137 53.5123C34.8637 53.2529 35.4397 53.4076 35.6992 53.8576C35.9586 54.3076 35.8039 54.8836 35.3539 55.1431C32.5731 56.7465 29.4855 57.8921 26.1866 58.4672L25.3336 58.6163C25.2263 58.6351 25.1166 58.6351 25.0093 58.6163L24.1568 58.4673C10.74 56.1282 0.822632 44.3529 0.822632 30.7262V11.7985C0.822632 11.422 1.04698 11.0818 1.39298 10.9334L24.8006 0.899878C25.0375 0.798348 25.3055 0.798348 25.5423 0.899878L48.9499 10.9334C49.2959 11.0818 49.5203 11.422 49.5203 11.7985V30.7262C49.5203 31.5233 49.4864 32.3141 49.4198 33.0969C49.3758 33.6145 48.9199 33.9991 48.4023 33.9551C47.8848 33.9109 47.5003 33.4551 47.5443 32.9375C47.6063 32.2073 47.6379 31.4698 47.6379 30.7262V12.4191L25.1715 2.78894L2.70498 12.4191V30.7262C2.70498 43.4422 11.9599 54.4302 24.48 56.6129L25.1715 56.7338L25.8629 56.6129C28.9402 56.0765 31.82 55.0079 34.4137 53.5123ZM43.0955 33.7327C43.0236 34.2471 42.5475 34.6063 42.033 34.5343C41.5185 34.4625 41.1593 33.9863 41.2313 33.4719C41.3572 32.5718 41.4222 31.6549 41.4222 30.7262V16.5174L25.1716 9.55941L8.92675 16.5174V30.7262C8.92675 40.2918 15.8171 48.596 25.1716 50.414C27.8199 49.8996 30.2704 48.8658 32.4229 47.4309C32.8551 47.1428 33.4399 47.2598 33.728 47.692C34.0162 48.1242 33.8992 48.7091 33.467 48.9972C31.0603 50.6014 28.3132 51.7474 25.3429 52.2974C25.2296 52.3185 25.1133 52.3185 25 52.2974C14.6726 50.384 7.0444 41.2531 7.0444 30.7262V15.8966C7.0444 15.5201 7.26887 15.1798 7.61499 15.0315L24.8009 7.67035C25.0376 7.56905 25.3053 7.56894 25.5419 7.67035L42.7338 15.0314C43.08 15.1796 43.3045 15.52 43.3045 15.8966V30.7262C43.3045 31.7432 43.2333 32.7471 43.0955 33.7327ZM46.8604 34.5462C53.6573 34.5462 59.1756 40.0646 59.1756 46.8615C59.1756 53.6585 53.6573 59.1767 46.8604 59.1767C40.0635 59.1767 34.5451 53.6585 34.5451 46.8615C34.5451 40.0646 40.0635 34.5462 46.8604 34.5462ZM46.8604 36.4286C41.1023 36.4286 36.4275 41.1034 36.4275 46.8615C36.4275 52.6195 41.1023 57.2943 46.8604 57.2943C52.6184 57.2943 57.2932 52.6195 57.2932 46.8615C57.2932 41.1034 52.6184 36.4286 46.8604 36.4286ZM45.3631 46.53L50.2304 41.612L50.232 41.6102C51.2536 40.5835 52.9206 40.5786 53.9473 41.6C54.9737 42.6209 54.9803 44.282 53.9593 45.3135L53.9589 45.314C51.7129 47.5803 49.4838 49.8603 47.2276 52.1166C46.2015 53.1428 44.5351 53.1428 43.509 52.1166L39.7695 48.3738C38.7438 47.348 38.742 45.6878 39.7678 44.6568L39.7695 44.6551C40.7957 43.6288 42.4619 43.6288 43.4882 44.6551L45.3631 46.53ZM44.7011 48.53L42.1572 45.9861C41.8658 45.6948 41.393 45.6945 41.1013 45.9853C40.8102 46.2789 40.8088 46.7509 41.1005 47.0427L44.8399 50.7856C45.1316 51.0772 45.605 51.0772 45.8966 50.7855C48.1506 48.5315 50.3776 46.2536 52.6215 43.9894C52.9115 43.6963 52.9113 43.2245 52.6198 42.9345C52.3289 42.6451 51.8565 42.6467 51.567 42.9374L46.0356 48.5266C45.8593 48.7046 45.6195 48.8051 45.369 48.8056C45.1185 48.8063 44.8782 48.7071 44.7011 48.53ZM25.1745 16.9769C32.2178 16.9769 37.9246 22.6836 37.9246 29.7271C37.9246 36.7705 32.2178 42.4772 25.1745 42.4772C18.1311 42.4772 12.4243 36.7705 12.4243 29.7271C12.4243 22.6836 18.1311 16.9769 25.1745 16.9769ZM25.1745 18.8593C19.1709 18.8593 14.3066 23.7235 14.3066 29.7271C14.3066 35.7306 19.1709 40.5948 25.1745 40.5948C31.178 40.5948 36.0423 35.7306 36.0423 29.7271C36.0423 23.7235 31.178 18.8593 25.1745 18.8593ZM26.1157 39.1288C26.1157 39.6483 25.6939 40.07 25.1745 40.07C24.655 40.07 24.2333 39.6483 24.2333 39.1288V38.1109C24.2333 37.5915 24.655 37.1698 25.1745 37.1698C25.6939 37.1698 26.1157 37.5915 26.1157 38.1109V39.1288ZM19.1892 37.0433C18.8219 37.4106 18.2256 37.4106 17.8583 37.0433C17.491 36.676 17.491 36.0795 17.8583 35.7122L18.5804 34.9901C18.9477 34.6228 19.5442 34.6228 19.9115 34.9901C20.2788 35.3574 20.2788 35.9539 19.9115 36.3212L19.1892 37.0433ZM15.7726 30.6682C15.2532 30.6682 14.8315 30.2466 14.8315 29.7271C14.8315 29.2076 15.2532 28.7859 15.7726 28.7859H16.7906C17.31 28.7859 17.7318 29.2076 17.7318 29.7271C17.7318 30.2466 17.31 30.6682 16.7906 30.6682H15.7726ZM32.4906 35.7122C32.858 36.0795 32.858 36.676 32.4906 37.0433C32.1233 37.4106 31.527 37.4106 31.1597 37.0433L30.4375 36.3212C30.0702 35.9539 30.0702 35.3574 30.4375 34.9901C30.8048 34.6228 31.4012 34.6228 31.7685 34.9901L32.4906 35.7122ZM24.2333 25.26C24.2333 24.7406 24.655 24.3188 25.1745 24.3188C25.6939 24.3188 26.1157 24.7406 26.1157 25.26V29.1836L28.6298 30.6348C29.0797 30.8945 29.2342 31.4706 28.9745 31.9205C28.7149 32.3703 28.1388 32.5247 27.6889 32.2651L24.7039 30.5422C24.4128 30.3741 24.2333 30.0634 24.2333 29.7271V25.26ZM31.1597 22.4108C31.527 22.0435 32.1233 22.0435 32.4906 22.4108C32.858 22.7781 32.858 23.3746 32.4906 23.7419L31.7685 24.464C31.4012 24.8313 30.8048 24.8313 30.4375 24.464C30.0702 24.0967 30.0702 23.5003 30.4375 23.1331L31.1597 22.4108ZM34.5797 28.7859C35.0991 28.7859 35.5209 29.2076 35.5209 29.7271C35.5209 30.2466 35.0991 30.6682 34.5797 30.6682H33.5584C33.0389 30.6682 32.6172 30.2466 32.6172 29.7271C32.6172 29.2076 33.0389 28.7859 33.5584 28.7859H34.5797ZM24.2333 20.3253C24.2333 19.8059 24.655 19.3841 25.1745 19.3841C25.6939 19.3841 26.1157 19.8059 26.1157 20.3253V21.3432C26.1157 21.8627 25.6939 22.2843 25.1745 22.2843C24.655 22.2843 24.2333 21.8627 24.2333 21.3432V20.3253ZM17.8583 23.7419C17.491 23.3746 17.491 22.7781 17.8583 22.4108C18.2256 22.0435 18.8219 22.0435 19.1892 22.4108L19.9115 23.1331C20.2788 23.5003 20.2788 24.0967 19.9115 24.464C19.5442 24.8313 18.9477 24.8313 18.5804 24.464L17.8583 23.7419Z" fill="#F89820"/>
</g>
<defs>
<clipPath id="clip0_196_2529">
<rect width="60" height="60" fill="white"/>
</clipPath>
</defs>
</svg>
