<svg width="60" height="60" viewBox="0 0 60 60" fill="none" xmlns="http://www.w3.org/2000/svg">
<path d="M47.09 0.90918H12.9082C10.1809 0.90918 7.9082 3.18191 7.9082 5.90918V49.3637C7.9082 52.091 10.1809 54.3637 12.9082 54.3637H13.4537V58.1819C13.4537 58.7274 13.8173 59.091 14.3627 59.091H20.9082C21.4537 59.091 21.8173 58.7274 21.8173 58.1819V54.2728H38.3627V58.1819C38.3627 58.7274 38.7264 59.091 39.2718 59.091H45.8173C46.3628 59.091 46.7264 58.7274 46.7264 58.1819V54.2728H47.2718C49.9991 54.2728 52.2718 52.0001 52.2718 49.2728V5.90918C52.09 3.18191 49.9082 0.90918 47.09 0.90918ZM12.9082 2.72736H47.1809C48.9082 2.72736 50.3628 4.18191 50.3628 5.90918V37.2728H9.72638V5.90918C9.72638 4.18191 11.09 2.72736 12.9082 2.72736ZM19.9082 57.2728H15.1809V54.2728H19.9082V57.2728ZM44.7264 57.2728H39.9991V54.2728H44.7264V57.2728ZM47.09 52.4546H12.9082C11.1809 52.4546 9.72638 51.0001 9.72638 49.2728V39.091H50.2718V49.3637C50.2718 51.091 48.9082 52.4546 47.09 52.4546Z" fill="#F89820"/>
<path d="M17.272 34.8179C17.6357 34.4543 17.6357 33.9088 17.272 33.5452C16.9084 33.1816 16.3629 33.1816 15.9993 33.5452C15.6357 33.9088 15.6357 34.4543 15.9993 34.8179C16.3629 35.1815 16.9084 35.1815 17.272 34.8179Z" fill="#F89820"/>
<path d="M21.3626 33.5454C20.9989 33.909 20.9989 34.4545 21.3626 34.8181C21.7262 35.1817 22.2717 35.1817 22.6353 34.8181C22.9989 34.4545 22.9989 33.8181 22.6353 33.5454C22.2717 33.2726 21.6353 33.2726 21.3626 33.5454Z" fill="#F89820"/>
<path d="M26.636 33.5454C26.2724 33.909 26.2724 34.4545 26.636 34.8181C26.9996 35.1817 27.5451 35.1817 27.9087 34.8181C28.2724 34.4545 28.2724 33.909 27.9087 33.5454C27.636 33.2726 26.9996 33.2726 26.636 33.5454Z" fill="#F89820"/>
<path d="M31.9993 33.5454C31.6357 33.909 31.6357 34.4545 31.9993 34.8181C32.3629 35.1817 32.9084 35.1817 33.272 34.8181C33.6357 34.4545 33.6357 33.909 33.272 33.5454C32.9993 33.2726 32.3629 33.2726 31.9993 33.5454Z" fill="#F89820"/>
<path d="M37.3626 33.5454C36.9989 33.909 36.9989 34.4545 37.3626 34.8181C37.7262 35.1817 38.2717 35.1817 38.6353 34.8181C38.9989 34.4545 38.9989 33.909 38.6353 33.5454C38.3626 33.2726 37.7262 33.2726 37.3626 33.5454Z" fill="#F89820"/>
<path d="M42.7259 34.8179C43.0895 35.1815 43.6349 35.1815 43.9986 34.8179C44.3622 34.5452 44.3622 33.9088 43.9986 33.5452C43.6349 33.1816 43.0895 33.1816 42.7259 33.5452C42.3622 33.9088 42.3622 34.4543 42.7259 34.8179Z" fill="#F89820"/>
<path d="M29.9996 30.0003C36.9996 30.0003 42.636 24.3639 42.636 17.3639C42.636 10.3639 36.9996 4.72754 29.9996 4.72754C22.9996 4.72754 17.3633 10.3639 17.3633 17.3639C17.3633 24.3639 22.9996 30.0003 29.9996 30.0003ZM29.9996 6.54572C35.9087 6.54572 40.8178 11.3639 40.8178 17.3639C40.8178 23.3639 35.9087 28.1821 29.9996 28.1821C24.0906 28.1821 19.1815 23.3639 19.1815 17.3639C19.1815 11.4548 24.0906 6.54572 29.9996 6.54572Z" fill="#F89820"/>
<path d="M30.2166 25.4545C33.9439 25.4545 36.9439 22.4545 36.9439 18.7273C36.9439 16.1818 34.2166 12.9091 31.5803 10.0909C31.3075 9.81818 31.1257 9.54545 31.0348 9.45455C30.853 9.18182 30.5803 9 30.3075 9C29.853 9 29.3984 9.27273 29.3075 9.72727C28.7621 13.0909 27.2166 14.1818 25.7621 15.1818C24.5803 16 23.3984 16.9091 23.3984 18.7273C23.4893 22.4545 26.4893 25.4545 30.2166 25.4545ZM26.853 16.6364C28.1257 15.7273 29.7621 14.5455 30.6712 11.7273C32.2166 13.3636 35.1257 16.7273 35.1257 18.6364C35.1257 21.3636 32.9439 23.5455 30.2166 23.5455C27.4893 23.5455 25.3075 21.3636 25.3075 18.6364C25.3075 17.8182 25.7621 17.4545 26.853 16.6364Z" fill="#F89820"/>
<path d="M17.0898 40.1816C14.3626 40.1816 12.0898 42.4544 12.0898 45.1816C12.0898 47.9089 14.3626 50.1816 17.0898 50.1816C19.8171 50.1816 22.0898 47.9089 22.0898 45.1816C21.9989 42.4544 19.8171 40.1816 17.0898 40.1816ZM17.0898 48.3635C15.3626 48.3635 13.908 46.9089 13.908 45.1816C13.908 43.4544 15.3626 41.9998 17.0898 41.9998C18.8171 41.9998 20.2717 43.4544 20.2717 45.1816C20.1808 46.9089 18.8171 48.3635 17.0898 48.3635Z" fill="#F89820"/>
<path d="M42.3633 40.1816C39.636 40.1816 37.3633 42.4544 37.3633 45.1816C37.3633 47.9089 39.636 50.1816 42.3633 50.1816C45.0906 50.1816 47.3633 47.9089 47.3633 45.1816C47.2724 42.4544 45.0906 40.1816 42.3633 40.1816ZM42.3633 48.3635C40.636 48.3635 39.1815 46.9089 39.1815 45.1816C39.1815 43.4544 40.636 41.9998 42.3633 41.9998C44.0906 41.9998 45.5451 43.4544 45.5451 45.1816C45.4542 46.9089 44.0906 48.3635 42.3633 48.3635Z" fill="#F89820"/>
<path d="M17.0888 43.2725C16.5433 43.2725 16.1797 43.6361 16.1797 44.1816V46.1816C16.1797 46.727 16.5433 47.0906 17.0888 47.0906C17.6342 47.0906 17.9979 46.727 17.9979 46.1816V44.1816C17.9979 43.6361 17.5433 43.2725 17.0888 43.2725Z" fill="#F89820"/>
<path d="M42.4538 43.8186L40.9993 45.2732C40.6357 45.6368 40.6357 46.1823 40.9993 46.5459C41.3629 46.9095 41.9084 46.9095 42.272 46.5459L43.7266 45.0914C44.0902 44.7277 44.0902 44.1823 43.7266 43.8186C43.3629 43.455 42.7266 43.455 42.4538 43.8186Z" fill="#F89820"/>
</svg>
