<svg width="60" height="60" viewBox="0 0 60 60" fill="none" xmlns="http://www.w3.org/2000/svg">
<g clip-path="url(#clip0_4070_739)">
<path d="M56 5H27.811C26.8747 5.00005 25.9681 4.67165 25.249 4.072L22.031 1.391C20.9521 0.492855 19.5928 0.000728731 18.189 0L4 0C2.93913 0 1.92172 0.421427 1.17157 1.17157C0.421427 1.92172 0 2.93913 0 4L0 50C0 51.0609 0.421427 52.0783 1.17157 52.8284C1.92172 53.5786 2.93913 54 4 54H20.389L19.349 56.187C19.0747 56.7669 19.0204 57.4268 19.1962 58.0438C19.3721 58.6608 19.7661 59.1929 20.305 59.541C20.7439 59.8379 21.2611 59.9976 21.791 60C22.1562 59.9985 22.5172 59.921 22.8508 59.7724C23.1844 59.6238 23.4835 59.4074 23.729 59.137L28.558 54H56C57.0609 54 58.0783 53.5786 58.8284 52.8284C59.5786 52.0783 60 51.0609 60 50V9C60 7.93913 59.5786 6.92172 58.8284 6.17157C58.0783 5.42143 57.0609 5 56 5ZM4 2H18.189C19.1253 1.99995 20.0319 2.32835 20.751 2.928L23.969 5.609C25.0479 6.50714 26.4072 6.99927 27.811 7H56C56.5304 7 57.0391 7.21071 57.4142 7.58579C57.7893 7.96086 58 8.46957 58 9V14.556C57.3947 14.1961 56.7043 14.0041 56 14H55V13C55 11.9391 54.5786 10.9217 53.8284 10.1716C53.0783 9.42143 52.0609 9 51 9H9C7.93913 9 6.92172 9.42143 6.17157 10.1716C5.42143 10.9217 5 11.9391 5 13V14H4C3.29575 14.0041 2.60535 14.1961 2 14.556V4C2 3.46957 2.21071 2.96086 2.58579 2.58579C2.96086 2.21071 3.46957 2 4 2ZM53 14H7V13C7 12.4696 7.21071 11.9609 7.58579 11.5858C7.96086 11.2107 8.46957 11 9 11H51C51.5304 11 52.0391 11.2107 52.4142 11.5858C52.7893 11.9609 53 12.4696 53 13V14ZM22.267 57.771C22.1646 57.8943 22.0187 57.9734 21.8595 57.992C21.7003 58.0107 21.5401 57.9673 21.412 57.871C21.2714 57.7874 21.1675 57.6539 21.1212 57.497C21.0748 57.3401 21.0894 57.1716 21.162 57.025L28.107 42.425C28.1786 42.2725 28.2105 42.1043 28.1998 41.9361C28.189 41.7679 28.1359 41.6052 28.0454 41.463C27.9549 41.3209 27.83 41.2039 27.6822 41.1229C27.5344 41.042 27.3685 40.9997 27.2 41H19.6C19.5041 41.0006 19.4095 40.9775 19.3247 40.9326C19.2399 40.8878 19.1675 40.8226 19.114 40.743C19.0571 40.6611 19.0211 40.5666 19.009 40.4676C18.997 40.3686 19.0094 40.2681 19.045 40.175L25.769 22.389C25.8111 22.2767 25.886 22.1796 25.9838 22.1103C26.0817 22.041 26.1981 22.0025 26.318 22H40.1C40.2072 21.9993 40.3125 22.0282 40.4043 22.0836C40.4961 22.139 40.5707 22.2188 40.62 22.314C40.6747 22.4115 40.701 22.5223 40.6961 22.634C40.6911 22.7457 40.6551 22.8537 40.592 22.946L32.322 35.446C32.2216 35.5968 32.1641 35.772 32.1556 35.953C32.1471 36.1339 32.1879 36.3138 32.2736 36.4733C32.3594 36.6329 32.4868 36.7662 32.6424 36.8589C32.798 36.9517 32.9759 37.0005 33.157 37H40.4C40.5162 36.9981 40.6302 37.0314 40.7271 37.0954C40.824 37.1595 40.8993 37.2514 40.943 37.359C40.9945 37.4663 41.0125 37.5867 40.9947 37.7044C40.9769 37.8221 40.924 37.9317 40.843 38.019L22.267 57.771ZM58 50C58 50.5304 57.7893 51.0391 57.4142 51.4142C57.0391 51.7893 56.5304 52 56 52H30.438L42.3 39.383C42.6444 39.0116 42.8733 38.5479 42.9587 38.0487C43.044 37.5494 42.9822 37.036 42.7807 36.5713C42.5793 36.1065 42.2469 35.7105 41.8241 35.4315C41.4014 35.1525 40.9065 35.0025 40.4 35H35.018L42.261 24.05C42.5215 23.658 42.6711 23.2028 42.6938 22.7326C42.7164 22.2625 42.6114 21.795 42.3899 21.3797C42.1683 20.9644 41.8384 20.6169 41.4352 20.374C41.0321 20.1311 40.5707 20.0018 40.1 20H26.318C25.7913 20.0026 25.2778 20.1647 24.845 20.4649C24.4123 20.7652 24.0807 21.1895 23.894 21.682L17.17 39.468C17.0202 39.8621 16.9682 40.2866 17.0186 40.7051C17.0689 41.1237 17.22 41.5238 17.459 41.8711C17.6979 42.2184 18.0176 42.5026 18.3905 42.6992C18.7634 42.8958 19.1784 42.999 19.6 43H25.625L21.34 52H4C3.46957 52 2.96086 51.7893 2.58579 51.4142C2.21071 51.0391 2 50.5304 2 50V18C2 17.4696 2.21071 16.9609 2.58579 16.5858C2.96086 16.2107 3.46957 16 4 16H56C56.5304 16 57.0391 16.2107 57.4142 16.5858C57.7893 16.9609 58 17.4696 58 18V50Z" fill="#F89820"/>
</g>
<defs>
<clipPath id="clip0_4070_739">
<rect width="60" height="60" fill="white"/>
</clipPath>
</defs>
</svg>
