<svg width="60" height="60" viewBox="0 0 60 60" fill="none" xmlns="http://www.w3.org/2000/svg">
<g clip-path="url(#clip0_154_2157)">
<path d="M52.7039 0H11.0126C11.0109 0 11.0094 0 11.0076 0C10.8738 0.000117125 10.7393 0.00374799 10.6046 0.0113611C6.77077 0.224645 3.76758 3.402 3.76758 7.24498V25.9018C3.76758 26.387 4.16088 26.7802 4.64601 26.7802C5.13114 26.7802 5.52445 26.387 5.52445 25.9018V7.24498C5.52445 4.33396 7.79877 1.92693 10.7022 1.76542C12.1965 1.68296 13.6279 2.21143 14.7314 3.25513C15.8558 4.31874 16.5007 5.81664 16.5007 7.36491V8.26923C16.5007 9.02984 17.1195 9.64872 17.8802 9.64872H53.222V32.5103C53.222 32.9955 53.6153 33.3887 54.1005 33.3887C54.5856 33.3887 54.9789 32.9955 54.9789 32.5103V9.64872H58.5872C59.3478 9.64872 59.9667 9.02984 59.9667 8.26923V7.26278C59.9665 3.25805 56.7085 0 52.7039 0ZM58.2097 7.89185H18.2575V7.36491C18.2575 5.33596 17.4124 3.37284 15.9386 1.97882C15.8582 1.90292 15.7765 1.82878 15.6936 1.75687H52.7039C55.7397 1.75687 58.2097 4.22679 58.2097 7.26278V7.89185Z" fill="#F89820"/>
<path d="M10.5422 35.6029C10.2056 35.2538 9.64948 35.2435 9.3001 35.5799C8.95084 35.9165 8.94041 36.4726 9.27703 36.822L29.3129 57.6166C29.4608 57.7701 29.4228 57.9342 29.387 58.0183C29.3512 58.1025 29.2594 58.2437 29.0463 58.2437H2.1603C1.95615 58.2437 1.79007 58.0776 1.79007 57.8736V29.9693C1.79007 29.7519 1.93531 29.6607 2.02186 29.6258C2.10853 29.5911 2.27614 29.5558 2.42688 29.7123L6.67827 34.1247C7.015 34.474 7.57111 34.4843 7.92026 34.1478C8.26964 33.8112 8.27995 33.2551 7.94333 32.9057L3.69206 28.4934C3.08688 27.8655 2.17342 27.6707 1.36456 27.9966C0.555813 28.323 0.0332031 29.0971 0.0332031 29.9694V57.8736C0.0332031 59.0465 0.987417 60.0006 2.1603 60.0006H29.0464C29.9143 60.0006 30.6643 59.5044 31.0039 58.7057C31.3434 57.907 31.1803 57.0226 30.5781 56.3976L10.5422 35.6029Z" fill="#F89820"/>
<path d="M14.0618 48.8767C14.3985 49.226 14.9546 49.2364 15.3038 48.8998C15.6532 48.5632 15.6635 48.0071 15.3269 47.6577L6.46415 38.4593C6.21561 38.2014 5.83519 38.1202 5.50291 38.2542C5.17063 38.3882 4.95312 38.7105 4.95312 39.0688V54.2027C4.95312 54.688 5.34643 55.0812 5.83156 55.0812H20.4132C20.7655 55.0812 21.0838 54.8707 21.2216 54.5465C21.3595 54.2222 21.2903 53.847 21.0458 53.5932L17.9257 50.355C17.5891 50.0058 17.033 49.9955 16.6837 50.3319C16.3344 50.6685 16.3241 51.2246 16.6607 51.574L18.3471 53.3243H6.70999V41.2465L14.0618 48.8767Z" fill="#F89820"/>
<path d="M54.1 49.9023C53.6148 49.9023 53.2215 50.2955 53.2215 50.7808V57.8015C53.2215 58.0452 53.0232 58.2434 52.7795 58.2434H33.6636C33.1785 58.2434 32.7852 58.6366 32.7852 59.1218C32.7852 59.6071 33.1785 60.0002 33.6636 60.0002H52.7794C53.9918 60.0002 54.9783 59.0138 54.9783 57.8015V50.7808C54.9784 50.2955 54.5851 49.9023 54.1 49.9023Z" fill="#F89820"/>
<path d="M46.5072 28.6454C46.1642 28.3024 45.608 28.3024 45.265 28.6454C44.922 28.9885 44.922 29.5446 45.265 29.8877L53.9956 38.6183L50.3022 42.3117L32.0775 24.0871L35.7709 20.3937L42.6145 27.2373C42.9575 27.5802 43.5138 27.5802 43.8567 27.2373C44.1998 26.8941 44.1998 26.338 43.8567 25.9949L36.3919 18.5302C36.2749 18.4132 36.1272 18.3317 35.9658 18.2949L30.1734 16.9754C29.7468 16.8783 29.3075 17.0048 28.9981 17.3141C28.6886 17.6236 28.5619 18.063 28.659 18.4897L29.9785 24.2822C30.0152 24.4435 30.0968 24.5913 30.2138 24.7083L49.6799 44.1743C49.6803 44.1747 49.6805 44.175 49.6808 44.1754C49.6812 44.1757 49.6816 44.176 49.6819 44.1763L52.6678 47.1622C53.3778 47.8723 54.3217 48.2631 55.3257 48.2631C56.3297 48.2631 57.2737 47.8722 57.9836 47.1623L58.8456 46.3002C59.5556 45.5901 59.9466 44.6462 59.9466 43.6422C59.9466 42.6382 59.5556 41.6942 58.8456 40.9843L46.5072 28.6454ZM34.0253 19.6546L31.3384 22.3415L30.5459 18.8621L34.0253 19.6546ZM57.6036 45.0577L56.7416 45.9197C56.3634 46.2979 55.8607 46.5062 55.3259 46.5062C54.7911 46.5062 54.2884 46.298 53.9102 45.9197L51.5445 43.554L55.2379 39.8606L57.6037 42.2264C57.9819 42.6045 58.1901 43.1073 58.1901 43.642C58.1899 44.1769 57.9818 44.6796 57.6036 45.0577Z" fill="#F89820"/>
<path d="M32.8929 15.6518C34.1763 15.1933 35.5232 14.961 36.8965 14.961C41.9069 14.961 46.4099 18.1278 48.1014 22.8411C48.2301 23.1997 48.5679 23.4231 48.9283 23.4231C49.0268 23.4231 49.1269 23.4064 49.2249 23.3713C49.6816 23.2075 49.9189 22.7044 49.755 22.2478C47.8137 16.8384 42.6464 13.2041 36.8966 13.2041C35.3214 13.2041 33.7756 13.4709 32.302 13.9974C31.8451 14.1605 31.6069 14.6632 31.7702 15.1201C31.9333 15.5769 32.4362 15.8148 32.8929 15.6518Z" fill="#F89820"/>
<path d="M26.7391 19.0565C26.3353 18.7876 25.79 18.8971 25.521 19.3007C24.0277 21.5433 23.2383 24.1578 23.2383 26.8614C23.2383 31.2784 25.3911 35.444 28.9971 38.0046C29.1514 38.1142 29.329 38.1669 29.5049 38.1669C29.7798 38.1669 30.0506 38.0381 30.222 37.7969C30.5028 37.4014 30.4098 36.853 30.0143 36.5722C26.8715 34.3406 24.9952 30.7104 24.9952 26.8615C24.9952 24.5056 25.6827 22.2279 26.9835 20.2747C27.2523 19.8707 27.1429 19.3254 26.7391 19.0565Z" fill="#F89820"/>
</g>
<defs>
<clipPath id="clip0_154_2157">
<rect width="60" height="60" fill="white"/>
</clipPath>
</defs>
</svg>
