<svg width="60" height="60" viewBox="0 0 60 60" fill="none" xmlns="http://www.w3.org/2000/svg">
<path d="M55.9031 22.0219L51.9469 21.3C51.6188 21.2438 51.45 21.0188 51.375 20.8969C51.3 20.775 51.2062 20.5125 51.3281 20.1938L53.1188 15.5438C53.5031 14.55 53.2594 13.4156 52.5094 12.6656L47.3344 7.49062C46.575 6.74062 45.45 6.49688 44.4562 6.88125L39.8062 8.67188C39.4875 8.79375 39.2344 8.69063 39.1031 8.625C38.9813 8.55 38.7562 8.39063 38.7 8.05313L37.9781 4.0875C37.7437 2.80313 36.6281 1.875 35.325 1.875H24.675C23.3719 1.875 22.2563 2.80312 22.0219 4.09687L21.3 8.0625C21.2437 8.39063 21.0188 8.55938 20.8969 8.63438C20.775 8.70938 20.5125 8.80313 20.1938 8.68125L15.5437 6.89062C14.55 6.50625 13.4156 6.74063 12.6656 7.5L7.49062 12.675C6.74062 13.425 6.49688 14.5594 6.88125 15.5531L8.67188 20.2031C8.79375 20.5219 8.69062 20.775 8.625 20.9062C8.55 21.0281 8.39062 21.2531 8.05313 21.3094L4.0875 22.0313C2.80313 22.2656 1.875 23.3813 1.875 24.6844V35.3344C1.875 36.6375 2.80312 37.7531 4.09687 37.9875L8.05313 38.7094C8.38125 38.7656 8.55 38.9906 8.625 39.1125C8.7 39.2344 8.79375 39.4969 8.67188 39.8156L6.88125 44.4656C6.49688 45.4594 6.74062 46.5938 7.49062 47.3438L12.6656 52.5188C13.425 53.2781 14.55 53.5125 15.5437 53.1281L20.1938 51.3375C20.5125 51.2156 20.7656 51.3188 20.8969 51.3844C21.0188 51.4594 21.2437 51.6188 21.3 51.9563L22.0219 55.9219C22.2563 57.2063 23.3719 58.1344 24.675 58.1344H35.325C36.6281 58.1344 37.7437 57.2063 37.9781 55.9125L38.7 51.9563C38.7562 51.6281 38.9813 51.4594 39.1031 51.3844C39.225 51.3094 39.4875 51.2156 39.8062 51.3375L44.4562 53.1281C45.45 53.5125 46.5844 53.2688 47.3344 52.5188L52.5094 47.3438C53.2594 46.5938 53.5031 45.4594 53.1188 44.4656L51.3281 39.8156C51.2062 39.4969 51.3094 39.2438 51.375 39.1125C51.45 38.9906 51.6094 38.7656 51.9469 38.7094L55.9125 37.9875C57.1969 37.7531 58.125 36.6375 58.125 35.3344V24.6844C58.125 23.3813 57.1969 22.2656 55.9031 22.0313V22.0219ZM56.25 35.325C56.25 35.7281 55.9688 36.0656 55.575 36.1313L51.6094 36.8531C50.8125 36.9938 50.1375 37.4813 49.7344 38.1844C49.3406 38.8875 49.275 39.7219 49.5656 40.4813L51.3562 45.1313C51.4688 45.4313 51.4031 45.7781 51.1688 46.0125L45.9938 51.1875C45.7594 51.4219 45.4219 51.4875 45.1125 51.375L40.4625 49.5844C39.7125 49.2938 38.8687 49.35 38.1656 49.7531C37.4625 50.1469 36.975 50.8313 36.8344 51.6281L36.1125 55.5844C36.0375 55.9781 35.7 56.2594 35.3063 56.2594H24.6562C24.2531 56.2594 23.9156 55.9781 23.85 55.5844L23.1281 51.6188C22.9875 50.8219 22.5 50.1469 21.7969 49.7438C21.3844 49.5094 20.9344 49.3969 20.475 49.3969C20.1469 49.3969 19.8187 49.4531 19.5 49.575L14.85 51.3656C14.55 51.4875 14.2031 51.4125 13.9688 51.1781L8.79375 46.0031C8.55938 45.7688 8.49375 45.4313 8.60625 45.1219L10.3969 40.4719C10.6875 39.7219 10.6312 38.8875 10.2281 38.175C9.83437 37.4719 9.15 36.9844 8.35312 36.8438L4.39688 36.1219C4.00312 36.0469 3.72188 35.7094 3.72188 35.3156V24.6656C3.72188 24.2625 4.00312 23.925 4.39688 23.8594L8.3625 23.1375C9.15938 22.9969 9.83437 22.5094 10.2375 21.8063C10.6313 21.1031 10.6969 20.2688 10.4062 19.5094L8.61562 14.8594C8.50312 14.5594 8.56875 14.2125 8.80313 13.9781L13.9781 8.80313C14.2125 8.57813 14.5594 8.50313 14.8594 8.61562L19.5094 10.4063C20.2594 10.6969 21.0938 10.6406 21.8062 10.2375C22.5094 9.84375 22.9969 9.15938 23.1375 8.3625C23.2781 7.56563 23.8594 4.39688 23.8594 4.39688C23.9344 4.00313 24.2719 3.72188 24.6656 3.72188H35.3156C35.7188 3.72188 36.0562 4.00313 36.1219 4.39688L36.8438 8.3625C36.9844 9.15938 37.4719 9.83438 38.175 10.2375C38.8781 10.6406 39.7125 10.6969 40.4719 10.4063L45.1219 8.61562C45.4219 8.50313 45.7687 8.56875 46.0031 8.80313L51.1781 13.9781C51.4125 14.2125 51.4781 14.55 51.3656 14.8594L49.575 19.5094C49.2844 20.2594 49.3406 21.0938 49.7438 21.8063C50.1375 22.5094 50.8219 22.9969 51.6188 23.1375L55.575 23.8594C55.9688 23.9344 56.25 24.2719 56.25 24.6656V35.3156V35.325Z" fill="#F89820"/>
<path d="M30 11.2502C19.6594 11.2502 11.25 19.6596 11.25 30.0002C11.25 40.3408 19.6594 48.7502 30 48.7502C33.3281 48.7502 36.6 47.8689 39.45 46.1908C39.6844 46.0502 39.8438 45.8252 39.9 45.5533C39.9469 45.2908 39.8813 45.0096 39.7125 44.7939L32.5219 35.7189C32.2687 35.3908 31.8281 35.2783 31.4438 35.4283C30.5625 35.7846 29.5688 35.8971 28.5844 35.7658C25.7625 35.3814 23.5594 32.8502 23.4563 29.8689C23.4188 29.0908 23.5312 28.3314 23.7656 27.6096L26.175 31.0971C26.8125 32.0158 27.8531 32.5689 28.95 32.5689C29.6906 32.5689 30.4219 32.3158 31.0031 31.8658C32.4656 30.7221 32.7844 28.6127 31.725 27.0658L29.2125 23.4377H29.4187C30.975 23.4377 32.5125 24.1502 33.6469 25.3689C34.8469 26.6721 35.4656 28.3971 35.3344 30.1033C35.2406 31.1908 34.9031 32.1846 34.3219 33.0658C34.0875 33.4221 34.125 33.8814 34.3969 34.2002L42.1031 42.9752C42.2719 43.1721 42.525 43.2846 42.7875 43.2939C43.05 43.2939 43.3031 43.2002 43.4813 43.0127C46.8844 39.5064 48.7594 34.8752 48.7594 29.9814C48.7594 19.6408 40.35 11.2314 30.0094 11.2314L30 11.2502ZM42.8156 40.9689L36.2531 33.4877C36.7875 32.5033 37.0969 31.4158 37.2 30.2627C37.3687 28.0314 36.5719 25.7908 35.0156 24.1033C33.5344 22.5002 31.5 21.5721 29.4187 21.5627C28.6969 21.5627 27.9937 21.6564 27.3281 21.8533C27.0375 21.9377 26.8031 22.1533 26.7094 22.4439C26.6062 22.7252 26.6531 23.0439 26.8219 23.2877L30.1781 28.1346C30.675 28.8658 30.5344 29.8502 29.85 30.3939C29.2313 30.8814 28.2 30.7314 27.7219 30.0377L24.3938 25.2189C24.2156 24.9564 23.9062 24.8158 23.6063 24.8158C23.2875 24.8158 22.9969 24.9846 22.8375 25.2564C21.9563 26.6533 21.525 28.2752 21.5906 29.9533C21.7219 33.8252 24.6187 37.1252 28.3406 37.6408C29.4094 37.7814 30.4781 37.7064 31.4813 37.4158L37.5656 45.1033C35.2406 46.2752 32.6531 46.8846 30.0188 46.8846C20.7094 46.8846 13.1438 39.3189 13.1438 30.0096C13.1438 20.7002 20.6906 13.1252 30 13.1252C39.3094 13.1252 46.875 20.6908 46.875 30.0002C46.875 34.0596 45.4406 37.9221 42.8156 40.9689Z" fill="#F89820"/>
</svg>
