<svg width="60" height="60" viewBox="0 0 60 60" fill="none" xmlns="http://www.w3.org/2000/svg">
<g clip-path="url(#clip0_4070_624)">
<path d="M58.9439 45.6952C58.8767 44.6837 58.6078 43.6959 58.1531 42.79C57.6984 41.884 57.067 41.0781 56.2962 40.4198C55.5254 39.7615 54.6306 39.264 53.6646 38.9567C52.6987 38.6493 51.681 38.5383 50.6714 38.6302L46.9214 38.9705L45.8471 37.8971L46.7405 36.8986C47.0852 36.437 47.2438 35.8627 47.1847 35.2896C47.1257 34.7165 46.8533 34.1865 46.4217 33.8049L44.0846 31.2736C44.4535 30.8095 44.6333 30.223 44.588 29.6319C44.5426 29.0407 44.2753 28.4885 43.8399 28.0861L41.1755 25.4274C40.9353 25.189 40.6522 24.9982 40.3411 24.8649C40.4455 24.5641 40.4817 24.2439 40.4471 23.9274C40.4177 23.6589 40.3339 23.3991 40.201 23.164C40.068 22.9288 39.8886 22.7232 39.6736 22.5596L35.3836 19.3008C35.0855 19.0784 34.7327 18.9411 34.3627 18.9034C33.9927 18.8658 33.6194 18.9293 33.2827 19.0871L28.8342 16.628C28.376 16.3724 27.8447 16.2796 27.327 16.3648C26.8092 16.4499 26.3356 16.7079 25.9833 17.0968L25.5408 17.5824L21.0258 13.0674L21.3746 9.32958C21.4664 8.32001 21.3555 7.30226 21.0481 6.33622C20.7408 5.37018 20.2434 4.47537 19.585 3.70446C18.9267 2.93355 18.1209 2.30211 17.2149 1.84729C16.3089 1.39248 15.3211 1.12349 14.3096 1.05614L8.56643 0.673642C8.24547 0.64866 7.92465 0.723773 7.64814 0.888641C7.37162 1.05351 7.153 1.30003 7.02237 1.59427C6.88785 1.88648 6.84655 2.21302 6.90408 2.52953C6.96161 2.84603 7.11518 3.13715 7.34393 3.36333L12.7636 8.78395L8.78675 12.7646L3.36612 7.34489C3.13906 7.11783 2.8482 6.96535 2.53229 6.90778C2.21637 6.85021 1.89042 6.89029 1.59786 7.02267C1.30531 7.15505 1.06004 7.37344 0.89475 7.64875C0.72946 7.92405 0.651996 8.2432 0.672683 8.56364L1.05518 14.3021C1.12133 15.3143 1.38943 16.303 1.84367 17.21C2.29791 18.1169 2.92911 18.9238 3.70006 19.583C4.47101 20.2422 5.36612 20.7404 6.33263 21.0483C7.29914 21.3561 8.3175 21.4674 9.32768 21.3755L13.0777 21.0352L16.2764 24.233L13.9871 26.799C13.4651 27.3859 13.1125 28.1037 12.9671 28.8755L10.9177 39.8049C10.5799 41.6168 9.60244 43.2471 8.16331 44.3986L0.641745 50.4108C0.544729 50.4874 0.463816 50.5824 0.403663 50.6904C0.343509 50.7984 0.305303 50.9172 0.291242 51.04C0.277181 51.1628 0.287543 51.2872 0.321732 51.406C0.355921 51.5248 0.413262 51.6356 0.490455 51.7321C0.567648 51.8287 0.663169 51.909 0.771522 51.9685C0.879875 52.028 0.998921 52.0654 1.12181 52.0787C1.2447 52.092 1.369 52.0809 1.48757 52.046C1.60614 52.011 1.71663 51.953 1.81268 51.8752L9.33424 45.8583C11.1229 44.4274 12.3387 42.4022 12.7608 40.1508L14.8121 29.2233C14.894 28.7855 15.094 28.3783 15.3905 28.0458L20.1258 22.7171C20.5319 22.2616 21.0933 21.9741 21.7002 21.9108C22.3071 21.8475 22.9158 22.013 23.4071 22.3749L27.2583 25.4452C27.842 25.9169 28.2251 26.5924 28.3301 27.3355C28.4351 28.0786 28.2543 28.8339 27.8241 29.4488C27.394 30.0638 26.7465 30.4926 26.0125 30.6488C25.2784 30.8049 24.5125 30.6768 23.8692 30.2902L22.9955 29.7661C22.7605 29.6256 22.4878 29.5613 22.2148 29.5823C21.9418 29.6033 21.682 29.7085 21.4714 29.8834C21.2607 30.0583 21.1095 30.2942 21.0386 30.5587C20.9677 30.8231 20.9806 31.1031 21.0755 31.3599C21.0917 31.4027 21.1108 31.4444 21.1327 31.4846L22.8052 34.5071C23.4196 35.627 23.6568 36.915 23.4817 38.1803C23.3066 39.4456 22.7285 40.6208 21.833 41.5318C21.6779 41.712 21.5971 41.9444 21.6069 42.182C21.6167 42.4196 21.7164 42.6446 21.8859 42.8114C22.0553 42.9782 22.2818 43.0744 22.5195 43.0805C22.7572 43.0866 22.9883 43.0022 23.1661 42.8443C24.343 41.6446 25.1025 40.0981 25.3325 38.4334C25.5624 36.7688 25.2505 35.0743 24.443 33.6005L23.7155 32.288C24.4542 32.5612 25.2488 32.6484 26.0292 32.5421C26.4714 33.162 27.0456 33.676 27.7104 34.0471C28.3753 34.4182 29.1142 34.6371 29.8739 34.688C29.9817 34.6936 30.0886 34.6974 30.1955 34.6974C30.8466 34.6974 31.4909 34.565 32.0892 34.3083C32.2526 35.327 32.7658 36.2568 33.5405 36.938C34.3423 37.6689 35.3835 38.0817 36.4683 38.0986C36.548 38.0986 36.6267 38.0986 36.7064 38.0911C36.9424 38.0767 37.1766 38.0403 37.4058 37.9824C37.6077 38.719 37.99 39.3936 38.5183 39.9453C39.0465 40.4969 39.704 40.9082 40.4311 41.1418L40.3533 41.229C39.6314 42.0371 38.9602 42.8902 38.3096 43.7152L37.6786 44.513C36.6811 45.7618 35.3849 46.7391 33.9099 47.3546L27.7824 49.9074C26.4013 50.4853 25.1742 51.3774 24.1983 52.5127L19.3505 58.1677C19.1964 58.3575 19.1224 58.5999 19.1445 58.8434C19.1666 59.0869 19.2829 59.3121 19.4686 59.4711C19.6543 59.63 19.8948 59.7101 20.1388 59.6943C20.3827 59.6785 20.6109 59.5681 20.7746 59.3865L25.6214 53.7305C26.4062 52.8179 27.393 52.1008 28.5033 51.6361L34.6308 49.0833C36.0801 48.4722 37.387 47.5672 38.4689 46.4255L38.9667 46.9243L38.6264 50.6696C38.5347 51.6791 38.6457 52.6967 38.953 53.6626C39.2604 54.6285 39.7577 55.5233 40.4159 56.2941C41.0741 57.065 41.8798 57.6965 42.7856 58.1514C43.6915 58.6063 44.6791 58.8754 45.6905 58.943L51.4299 59.3255H51.5396C51.8515 59.3243 52.1562 59.2309 52.4151 59.0569C52.6741 58.8829 52.8758 58.6361 52.9947 58.3478C53.1137 58.0594 53.1447 57.7422 53.0838 57.4362C53.0229 57.1302 52.8728 56.8492 52.6524 56.6283L47.2327 51.2077L51.2096 47.2308L56.6302 52.6515C56.8572 52.8785 57.1481 53.031 57.464 53.0886C57.7799 53.1461 58.1059 53.1061 58.3984 52.9737C58.691 52.8413 58.9363 52.6229 59.1016 52.3476C59.2668 52.0723 59.3443 51.7532 59.3236 51.4327L58.9439 45.6952ZM27.9305 18.2733L31.8099 20.4174L28.5174 24.054L28.4236 23.979L28.4133 23.9696L24.8602 21.1271L27.3727 18.3652C27.4415 18.289 27.5342 18.2385 27.6355 18.2218C27.7369 18.2051 27.8408 18.2233 27.9305 18.2733ZM18.7224 21.4693L17.5196 22.8221L14.0892 19.3927C13.9917 19.2953 13.874 19.2205 13.7444 19.1736C13.6148 19.1266 13.4765 19.1086 13.3392 19.1208L9.158 19.5005C8.3975 19.5699 7.63081 19.4863 6.90309 19.2548C6.17536 19.0234 5.50131 18.6486 4.92062 18.1527C4.33993 17.6567 3.86434 17.0496 3.52186 16.367C3.17938 15.6845 2.97693 14.9403 2.92643 14.1783L2.59643 9.22552L8.12768 14.7568C8.30349 14.9325 8.5419 15.0313 8.79049 15.0313C9.03909 15.0313 9.2775 14.9325 9.45331 14.7568L14.7558 9.45427C14.9316 9.27846 15.0303 9.04005 15.0303 8.79145C15.0303 8.54286 14.9316 8.30445 14.7558 8.12864L9.22456 2.59739L14.1802 2.92739C14.942 2.97824 15.686 3.18099 16.3682 3.52368C17.0505 3.86638 17.6574 4.34211 18.153 4.92286C18.6487 5.50361 19.0232 6.17766 19.2544 6.90532C19.4857 7.63297 19.569 8.39954 19.4996 9.15989L19.1246 13.343C19.1119 13.4803 19.1297 13.6187 19.1767 13.7484C19.2237 13.878 19.2987 13.9957 19.3964 14.093L24.2808 18.9783L23.1755 20.1971C22.389 19.9655 21.5528 19.9621 20.7644 20.1873C19.976 20.4126 19.2679 20.8571 18.7224 21.4693ZM29.9921 32.813C29.2096 32.7597 28.4723 32.427 27.9146 31.8755C28.3659 31.5987 28.7693 31.2504 29.1089 30.8443C29.7185 30.118 30.0994 29.2274 30.2035 28.2849C30.3076 27.3424 30.1303 26.3902 29.6939 25.5483L33.9192 20.8936C33.9564 20.843 34.0095 20.8062 34.07 20.7892C34.1304 20.7722 34.1949 20.776 34.253 20.7999L38.543 24.0586C38.5573 24.0698 38.5688 24.084 38.5768 24.1002C38.5847 24.1165 38.5889 24.1343 38.5889 24.1524C38.5925 24.1974 38.5869 24.2426 38.5724 24.2853C38.5579 24.3281 38.5348 24.3674 38.5046 24.4008L32.4474 31.7911C32.1478 32.1432 31.7692 32.4193 31.3424 32.597C30.9157 32.7746 30.4529 32.8486 29.9921 32.813ZM36.5949 36.2199C35.9285 36.2392 35.2811 35.9969 34.7911 35.5449C34.3673 35.2238 34.0778 34.7568 33.9786 34.2345C33.8793 33.7121 33.9774 33.1715 34.2539 32.7174L39.1374 26.618C39.1621 26.5905 39.1925 26.5686 39.2265 26.5541C39.2605 26.5395 39.2973 26.5325 39.3342 26.5336C39.4318 26.5335 39.5284 26.5533 39.618 26.5919C39.7076 26.6304 39.7885 26.6868 39.8555 26.7577L42.5189 29.4155C42.7421 29.6386 42.7814 29.9246 42.6764 30.0436L42.1317 30.6671C42.1317 30.6671 42.1224 30.6727 42.1186 30.6765L41.078 31.8699L37.7274 35.6958C37.5832 35.8544 37.4087 35.9825 37.2142 36.0725C37.0197 36.1625 36.8091 36.2126 36.5949 36.2199ZM40.2089 38.9443C39.9364 38.7556 39.704 38.5148 39.5251 38.2357C39.3461 37.9567 39.2242 37.645 39.1664 37.3186C39.1503 37.2234 39.1531 37.1259 39.1748 37.0318C39.1966 36.9376 39.2367 36.8487 39.293 36.7702L42.6249 32.949L42.8461 32.6968L45.0483 35.079C45.2044 35.2335 45.3089 35.4326 45.3474 35.649L42.1046 39.2724C41.8186 39.5921 40.9889 39.5349 40.2089 38.9443ZM51.8752 45.248C51.6961 45.0786 51.4589 44.9843 51.2124 44.9843C50.9658 44.9843 50.7287 45.0786 50.5496 45.248L45.2471 50.5505C45.0713 50.7263 44.9726 50.9647 44.9726 51.2133C44.9726 51.4619 45.0713 51.7003 45.2471 51.8761L50.7783 57.4074L45.8217 57.0774C45.0594 57.0267 44.315 56.8239 43.6322 56.4811C42.9494 56.1382 42.3422 55.6622 41.8462 55.081C41.3503 54.4999 40.9756 53.8254 40.7443 53.0972C40.5131 52.369 40.4298 51.602 40.4996 50.8411L40.8802 46.658C40.8928 46.5207 40.875 46.3823 40.828 46.2527C40.781 46.123 40.706 46.0053 40.6083 45.908L39.6905 45.0005L39.7842 44.8805C40.4171 44.0771 41.0714 43.2474 41.753 42.4833L43.4996 40.523L44.5964 39.2986L45.9089 40.6111C46.0071 40.7076 46.125 40.7818 46.2544 40.8287C46.3838 40.8756 46.5217 40.8941 46.6589 40.883L50.8421 40.5024C51.6026 40.4331 52.3692 40.5166 53.097 40.7481C53.8247 40.9796 54.4987 41.3543 55.0794 41.8503C55.6601 42.3462 56.1357 42.9533 56.4782 43.6359C56.8207 44.3184 57.0231 45.0626 57.0736 45.8246L57.4036 50.7802L51.8752 45.248Z" fill="#F89820"/>
</g>
<defs>
<clipPath id="clip0_4070_624">
<rect width="60" height="60" fill="white"/>
</clipPath>
</defs>
</svg>
