<svg width="60" height="60" viewBox="0 0 60 60" fill="none" xmlns="http://www.w3.org/2000/svg">
<g clip-path="url(#clip0_4070_556)">
<path d="M49.4128 10.5872C49.237 10.4114 48.9986 10.3126 48.75 10.3125H36.0131L26.9128 1.21219C26.737 1.03636 26.4986 0.937553 26.25 0.9375H1.875C1.62636 0.9375 1.3879 1.03627 1.21209 1.21209C1.03627 1.3879 0.9375 1.62636 0.9375 1.875V50.625C0.9375 50.8736 1.03627 51.1121 1.21209 51.2879C1.3879 51.4637 1.62636 51.5625 1.875 51.5625H23.4375V58.125C23.4375 58.3736 23.5363 58.6121 23.7121 58.7879C23.8879 58.9637 24.1264 59.0625 24.375 59.0625H58.125C58.3736 59.0625 58.6121 58.9637 58.7879 58.7879C58.9637 58.6121 59.0625 58.3736 59.0625 58.125V20.625C59.0624 20.3764 58.9636 20.138 58.7878 19.9622L49.4128 10.5872ZM49.6875 13.5131L55.8619 19.6875H49.6875V13.5131ZM35.625 44.0625C33.4 44.0625 31.2249 43.4027 29.3748 42.1665C27.5248 40.9304 26.0828 39.1734 25.2314 37.1177C24.3799 35.062 24.1571 32.8 24.5912 30.6177C25.0253 28.4354 26.0967 26.4309 27.67 24.8575C29.2434 23.2842 31.2479 22.2128 33.4302 21.7787C35.6125 21.3446 37.8745 21.5674 39.9302 22.4189C41.9859 23.2703 43.7429 24.7123 44.979 26.5623C46.2152 28.4124 46.875 30.5875 46.875 32.8125C46.8718 35.7952 45.6855 38.6548 43.5764 40.7639C41.4673 42.873 38.6077 44.0593 35.625 44.0625ZM27.1875 4.13813L33.3619 10.3125H27.1875V4.13813ZM2.8125 2.8125H25.3125V11.25C25.3125 11.4986 25.4113 11.7371 25.5871 11.9129C25.7629 12.0887 26.0014 12.1875 26.25 12.1875H34.6875V19.7353C32.3737 19.9031 30.1456 20.6811 28.2304 21.9902C26.3151 23.2992 24.781 25.0926 23.7844 27.1875H14.0625V29.0625H23.0531C22.1157 32.169 22.3766 35.514 23.7844 38.4375H14.0625V40.3125H24.8691C25.339 40.9855 25.8707 41.6132 26.4572 42.1875H14.0625V44.0625H28.8994C30.6578 45.1193 32.6411 45.7453 34.6875 45.8897V49.6875H2.8125V2.8125ZM25.3125 57.1875V51.5625H35.625C35.8736 51.5625 36.1121 51.4637 36.2879 51.2879C36.4637 51.1121 36.5625 50.8736 36.5625 50.625V45.8897C39.8733 45.6584 42.9731 44.18 45.2366 41.7529C47.5001 39.3257 48.7589 36.1304 48.7589 32.8116C48.7589 29.4927 47.5001 26.2974 45.2366 23.8702C42.9731 21.4431 39.8733 19.9647 36.5625 19.7334V12.1875H47.8125V20.625C47.8125 20.8736 47.9113 21.1121 48.0871 21.2879C48.2629 21.4637 48.5014 21.5625 48.75 21.5625H57.1875V57.1875H25.3125Z" fill="#F89820"/>
<path d="M11.25 9.375H5.625C5.37636 9.375 5.1379 9.47377 4.96209 9.64959C4.78627 9.8254 4.6875 10.0639 4.6875 10.3125V15.9375C4.6875 16.1861 4.78627 16.4246 4.96209 16.6004C5.1379 16.7762 5.37636 16.875 5.625 16.875H11.25C11.4986 16.875 11.7371 16.7762 11.9129 16.6004C12.0887 16.4246 12.1875 16.1861 12.1875 15.9375V10.3125C12.1875 10.0639 12.0887 9.8254 11.9129 9.64959C11.7371 9.47377 11.4986 9.375 11.25 9.375ZM10.3125 15H6.5625V11.25H10.3125V15Z" fill="#F89820"/>
<path d="M11.25 22.5H5.625C5.37636 22.5 5.1379 22.5988 4.96209 22.7746C4.78627 22.9504 4.6875 23.1889 4.6875 23.4375V29.0625C4.6875 29.3111 4.78627 29.5496 4.96209 29.7254C5.1379 29.9012 5.37636 30 5.625 30H11.25C11.4986 30 11.7371 29.9012 11.9129 29.7254C12.0887 29.5496 12.1875 29.3111 12.1875 29.0625V23.4375C12.1875 23.1889 12.0887 22.9504 11.9129 22.7746C11.7371 22.5988 11.4986 22.5 11.25 22.5ZM10.3125 28.125H6.5625V24.375H10.3125V28.125Z" fill="#F89820"/>
<path d="M11.25 37.5H5.625C5.37636 37.5 5.1379 37.5988 4.96209 37.7746C4.78627 37.9504 4.6875 38.1889 4.6875 38.4375V44.0625C4.6875 44.3111 4.78627 44.5496 4.96209 44.7254C5.1379 44.9012 5.37636 45 5.625 45H11.25C11.4986 45 11.7371 44.9012 11.9129 44.7254C12.0887 44.5496 12.1875 44.3111 12.1875 44.0625V38.4375C12.1875 38.1889 12.0887 37.9504 11.9129 37.7746C11.7371 37.5988 11.4986 37.5 11.25 37.5ZM10.3125 43.125H6.5625V39.375H10.3125V43.125Z" fill="#F89820"/>
<path d="M23.4375 10.3125H14.0625V12.1875H23.4375V10.3125Z" fill="#F89820"/>
<path d="M32.8125 14.0625H14.0625V15.9375H32.8125V14.0625Z" fill="#F89820"/>
<path d="M23.4375 23.4375H14.0625V25.3125H23.4375V23.4375Z" fill="#F89820"/>
<path d="M43.7879 29.337L40.9754 26.5245C40.7995 26.3487 40.5611 26.25 40.3125 26.25C40.064 26.25 39.8255 26.3487 39.6497 26.5245L32.8125 33.3617L30.6629 31.212C30.487 31.0362 30.2486 30.9375 30 30.9375C29.7515 30.9375 29.513 31.0362 29.3372 31.212L26.5247 34.0245C26.349 34.2003 26.2502 34.4387 26.2502 34.6873C26.2502 34.9359 26.349 35.1743 26.5247 35.3501L32.1497 40.9751C32.3255 41.1509 32.564 41.2496 32.8125 41.2496C33.0611 41.2496 33.2995 41.1509 33.4754 40.9751L43.7879 30.6626C43.9636 30.4868 44.0623 30.2484 44.0623 29.9998C44.0623 29.7512 43.9636 29.5128 43.7879 29.337ZM32.8125 38.9867L28.5132 34.6873L30 33.2004L32.1497 35.3501C32.3255 35.5259 32.564 35.6246 32.8125 35.6246C33.0611 35.6246 33.2995 35.5259 33.4754 35.3501L40.3125 28.5129L41.7994 29.9998L32.8125 38.9867Z" fill="#F89820"/>
</g>
<defs>
<clipPath id="clip0_4070_556">
<rect width="60" height="60" fill="white"/>
</clipPath>
</defs>
</svg>
