<svg width="60" height="60" viewBox="0 0 60 60" fill="none" xmlns="http://www.w3.org/2000/svg">
<g clip-path="url(#clip0_4070_469)">
<path d="M56.5991 35.3226H55.3336V27.2257C55.3336 23.6049 52.3924 20.6638 48.7717 20.6638H45.479V16.0236C45.479 12.4029 42.5379 9.45 38.9054 9.45H35.8119C35.6713 8.61804 35.1909 7.85639 34.4292 7.37597L23.3795 0.462541C21.9616 -0.428002 20.0751 0.00555177 19.1845 1.43511L14.1811 9.45H8.00587C6.28337 9.45 4.65461 10.1179 3.42426 11.3131C2.22905 12.4732 1.53771 14.0199 1.45569 15.6721C1.45569 15.7072 1.44397 15.7541 1.44397 15.7893V53.4381C1.44397 57.0589 4.38511 60 8.00587 60H48.7599C52.3807 60 55.3218 57.0589 55.3218 53.4381V45.3412H56.5873C57.6771 45.3412 58.5559 44.4624 58.5559 43.3727V37.3029C58.5676 36.2014 57.6888 35.3226 56.5991 35.3226ZM43.7682 16.0119V20.6521H34.312L36.9134 18.0508C37.4875 17.4766 37.8039 16.715 37.8039 15.9064C37.8039 15.0979 37.4875 14.3363 36.9134 13.7621L35.0385 11.8873C35.1792 11.817 35.2963 11.7115 35.3901 11.5709C35.4721 11.442 35.5424 11.3014 35.601 11.1608H38.9054C41.5887 11.1491 43.7682 13.3285 43.7682 16.0119ZM9.71665 20.6521L24.6215 5.74721C25.1371 5.23163 25.9925 5.23163 26.5081 5.74721L35.7182 14.9573C36.2337 15.4729 36.2337 16.3283 35.7182 16.8438L31.9099 20.6521H9.71665ZM33.9488 10.6569C33.9371 10.6804 33.9254 10.7038 33.9019 10.7272L29.4492 6.27451L33.527 8.81724C34.148 9.20393 34.3355 10.0242 33.9488 10.6569ZM20.6375 2.33737C21.0242 1.71633 21.8562 1.52885 22.4772 1.91553L25.266 3.66147C24.5864 3.72005 23.9185 4.013 23.4029 4.54029L12.3531 15.5901L20.6375 2.33737ZM8.00587 11.1491H13.1148L7.22078 20.5818C4.94755 20.2068 3.1899 18.25 3.15475 15.8713C3.22506 13.27 5.40454 11.1491 8.00587 11.1491ZM53.6228 53.4381C53.6228 56.1215 51.4433 58.301 48.7599 58.301H8.00587C5.32252 58.301 3.14303 56.1215 3.14303 53.4381V20.2068C4.23278 21.4137 5.76779 22.2105 7.49029 22.3394C7.54888 22.3512 7.60747 22.3629 7.67777 22.3629H32.2497H32.2615H44.6002H44.6119H44.6236H48.7599C51.4433 22.3629 53.6228 24.5424 53.6228 27.2257V35.3226H49.545C46.7797 35.3226 44.5416 37.5724 44.5416 40.3261C44.5416 43.0797 46.7914 45.3295 49.545 45.3295H53.6228V53.4381ZM56.8569 43.3609C56.8569 43.5016 56.7397 43.6304 56.5873 43.6304H49.5333C47.7171 43.6304 46.2289 42.154 46.2289 40.3261C46.2289 38.5098 47.7053 37.0217 49.5333 37.0217H56.5873C56.728 37.0217 56.8569 37.1389 56.8569 37.2912V43.3609Z" fill="#F89820"/>
<path d="M49.5095 39.4712C49.0408 39.4712 48.6541 39.8579 48.6541 40.3266C48.6541 40.7953 49.0408 41.182 49.5095 41.182C49.9782 41.182 50.3649 40.7953 50.3649 40.3266C50.3649 39.8579 49.9899 39.4712 49.5095 39.4712Z" fill="#F89820"/>
<path d="M30.0108 26.9331C22.9099 26.9331 17.1331 32.7099 17.1331 39.8108C17.1331 46.9117 22.9099 52.6886 30.0108 52.6886C37.1117 52.6886 42.8885 46.9117 42.8885 39.8108C42.8885 32.7099 37.1117 26.9331 30.0108 26.9331ZM30.0108 50.9778C23.8473 50.9778 18.8438 45.9626 18.8438 39.8108C18.8438 33.6473 23.859 28.6439 30.0108 28.6439C36.1743 28.6439 41.1777 33.6591 41.1777 39.8108C41.1777 45.9626 36.1626 50.9778 30.0108 50.9778Z" fill="#F89820"/>
<path d="M36.3155 33.4946C35.9874 33.1665 35.4366 33.1665 35.1085 33.4946L23.6955 44.9076C23.3674 45.2357 23.3674 45.7864 23.6955 46.1145C23.8596 46.2786 24.0822 46.3606 24.3049 46.3606C24.5275 46.3606 24.7384 46.2786 24.9142 46.1145L36.3272 34.7015C36.6553 34.3734 36.6553 33.8344 36.3155 33.4946Z" fill="#F89820"/>
<path d="M26.0742 38.6152C27.5858 38.6152 28.8161 37.3849 28.8161 35.8733C28.8161 34.3617 27.5858 33.1313 26.0742 33.1313C24.5626 33.1313 23.3323 34.3617 23.3323 35.8733C23.3323 37.3849 24.5626 38.6152 26.0742 38.6152ZM26.0742 34.8421C26.6484 34.8421 27.1054 35.3108 27.1054 35.8733C27.1054 36.4474 26.6367 36.9044 26.0742 36.9044C25.5 36.9044 25.0431 36.4357 25.0431 35.8733C25.0313 35.2991 25.5 34.8421 26.0742 34.8421Z" fill="#F89820"/>
<path d="M33.9375 40.9946C32.4259 40.9946 31.1956 42.225 31.1956 43.7366C31.1956 45.2481 32.4259 46.4785 33.9375 46.4785C35.4491 46.4785 36.6794 45.2481 36.6794 43.7366C36.6911 42.225 35.4608 40.9946 33.9375 40.9946ZM33.9375 44.7794C33.3633 44.7794 32.9063 44.3107 32.9063 43.7483C32.9063 43.1858 33.375 42.7171 33.9375 42.7171C34.5117 42.7171 34.9686 43.1858 34.9686 43.7483C34.9686 44.3107 34.5117 44.7794 33.9375 44.7794Z" fill="#F89820"/>
</g>
<defs>
<clipPath id="clip0_4070_469">
<rect width="60" height="60" fill="white"/>
</clipPath>
</defs>
</svg>
