<svg width="138" height="64" viewBox="0 0 138 64" fill="none" xmlns="http://www.w3.org/2000/svg">
<path d="M44.7019 30.887L43.1751 32.5433H36.9288V46.8932H30.2656V27.5763H44.7019V30.887Z" fill="#F89820"/>
<path d="M52.1998 38.6135H54.6977L53.5877 33.6474H53.3098L52.1998 38.6135ZM51.0892 46.893H44.0098V44.41L49.0066 27.5761H57.8908L62.8882 44.41V46.893H55.8087L55.253 43.3057H51.6445L51.0892 46.893Z" fill="#F89820"/>
<path d="M75.5192 27.5761C77.7403 27.5761 79.4056 29.2314 79.4056 31.4392V33.7851C79.4056 35.1921 78.6838 35.9649 77.9344 36.4067C77.5181 36.6554 77.0185 36.8474 76.4908 36.9586V37.2348C77.0737 37.345 77.6013 37.538 78.0733 37.7858C78.8784 38.2275 79.6839 39.0008 79.6839 40.4079V43.0295C79.6839 45.2377 78.0176 46.893 75.7966 46.893H64.1366V41.9256H73.0203V39.7178H67.6066V34.7504H72.7434V32.5436H65.8024L64.2755 30.8868V27.5761H75.5192Z" fill="#F89820"/>
<path d="M88.9848 42.202H92.1779V32.2671H88.9848V42.202ZM98.8401 43.3059C98.8401 45.5127 97.1753 47.1694 94.9537 47.1694H86.2085C83.9884 47.1694 82.3221 45.5127 82.3221 43.3059V31.1632C82.3221 28.9554 83.9884 27.2996 86.2085 27.2996H94.9537C97.1753 27.2996 98.8401 28.9554 98.8401 31.1632V43.3059Z" fill="#F89820"/>
<path d="M112.027 39.4423H108.973V41.9253H112.027V39.4423ZM108.974 34.7501H111.472V32.5433H108.974V34.7501ZM114.248 27.5763C116.469 27.5763 118.135 29.2316 118.135 31.4394V33.6472C118.135 35.0547 117.469 35.8275 116.803 36.2683C116.414 36.5161 115.969 36.71 115.497 36.8207V37.0955C116.081 37.2066 116.608 37.4001 117.08 37.6484C117.885 38.0901 118.69 38.862 118.69 40.27V43.0292C118.69 45.2374 117.025 46.8932 114.804 46.8932H102.31V27.5763H114.248Z" fill="#F89820"/>
<path d="M121.746 27.5763H128.409V46.8932H121.746V27.5763Z" fill="#F89820"/>
<path d="M10.0409 9.57117C10.0409 6.58627 12.3462 4.4502 15.4488 4.4502C17.1712 4.4502 18.6085 5.0724 19.5476 6.20419L18.0677 7.56263C17.3987 6.79848 16.5588 6.40245 15.563 6.40245C13.6987 6.40245 12.3752 7.7041 12.3752 9.57117C12.3752 11.4387 13.6987 12.7399 15.563 12.7399C16.5588 12.7399 17.3987 12.3443 18.0677 11.5662L19.5476 12.9242C18.6085 14.0699 17.1712 14.6921 15.4347 14.6921C12.3462 14.6921 10.0409 12.5561 10.0409 9.57117Z" fill="white"/>
<path d="M30.5576 4.61979L26.3164 12.4571C25.4915 13.9845 24.3098 14.7491 22.9723 14.7491C22.4456 14.7491 21.9048 14.6355 21.35 14.4094L21.9048 12.6694C22.2747 12.7824 22.6019 12.8532 22.9011 12.8532C23.4699 12.8532 23.9114 12.5986 24.2958 12.0043L24.381 11.8912L20.453 4.61979H22.9151L25.5622 9.93949L28.2944 4.61979H30.5576Z" fill="white"/>
<path d="M40.7884 4.61979V14.5225H38.5112V10.9572C37.6432 11.2686 36.8464 11.4245 36.1067 11.4245C33.4306 11.4245 31.9647 10.1089 31.9647 7.71777V4.61979H34.2419V7.4637C34.2419 8.82165 34.9961 9.51458 36.3768 9.51458C37.1305 9.51458 37.8707 9.35916 38.5112 9.07573V4.61979H40.7884Z" fill="white"/>
<path d="M49.6691 10.6607L48.0895 6.86926L46.5099 10.6607H49.6691ZM50.3948 12.4007H45.7697L44.8872 14.5223H42.5253L46.9654 4.61964H49.2421L53.6968 14.5223H51.2773L50.3948 12.4007Z" fill="white"/>
<path d="M54.285 9.57117C54.285 6.58627 56.5903 4.4502 59.6934 4.4502C61.4153 4.4502 62.8526 5.0724 63.7918 6.20419L62.3119 7.56263C61.6429 6.79848 60.8029 6.40245 59.8072 6.40245C57.9429 6.40245 56.6194 7.7041 56.6194 9.57117C56.6194 11.4387 57.9429 12.7399 59.8072 12.7399C60.8029 12.7399 61.6429 12.3443 62.3119 11.5662L63.7918 12.9242C62.8526 14.0699 61.4153 14.6921 59.6789 14.6921C56.5903 14.6921 54.285 12.5561 54.285 9.57117Z" fill="white"/>
<path d="M74.7477 4.61979V14.5225H72.4424V10.4626H67.9166V14.5225H65.6113V4.61979H67.9166V8.52427H72.4424V4.61979H74.7477Z" fill="white"/>
<path d="M77.4979 8.1049H79.7882V14.5222H77.4979V8.1049Z" fill="white"/>
<path d="M28.4814 52.8577H19.8436V50.9902H28.4814V52.8577Z" fill="white"/>
<path d="M37.9782 59.0542V60.8929H30.2655V50.9902H37.7937V52.8294H32.5567V54.9799H37.1818V56.7623H32.5567V59.0542H37.9782Z" fill="white"/>
<path d="M42.3187 50.9903L44.3829 53.9892L46.4456 50.9903H49.1493L45.8342 55.7297L49.4204 60.893H46.7017L44.3829 57.6112L42.0907 60.893H39.4296L42.9872 55.8284L39.6576 50.9903H42.3187Z" fill="white"/>
<path d="M60.3135 50.9903V60.893H58.0083V56.8336H53.4829V60.893H51.1776V50.9903H53.4829V54.8948H58.0083V50.9903H60.3135Z" fill="white"/>
<path d="M70.9747 55.9419C70.9747 54.0604 69.6366 52.7727 67.8586 52.7727C66.079 52.7727 64.7414 54.0604 64.7414 55.9419C64.7414 57.8229 66.079 59.1106 67.8586 59.1106C69.6366 59.1106 70.9747 57.8229 70.9747 55.9419ZM62.4081 55.9419C62.4081 52.9998 64.7134 50.8205 67.8586 50.8205C70.9887 50.8205 73.309 52.9849 73.309 55.9419C73.309 58.8984 70.9887 61.0629 67.8586 61.0629C64.7134 61.0629 62.4081 58.8845 62.4081 55.9419Z" fill="white"/>
<path d="M84.172 50.9903V60.893H81.8943V52.8579H78.479L78.4078 54.9232C78.28 58.8137 77.7252 61.0489 75.3904 61.0489C75.0491 61.0489 74.6793 60.9921 74.2518 60.893L74.3942 58.9552C74.537 58.9976 74.6653 59.0115 74.8066 59.0115C75.9743 59.0115 76.2739 57.54 76.3727 55.0084L76.5155 50.9903H84.172Z" fill="white"/>
<path d="M94.8311 55.9419C94.8311 54.0604 93.4931 52.7727 91.714 52.7727C89.9359 52.7727 88.5979 54.0604 88.5979 55.9419C88.5979 57.8229 89.9359 59.1106 91.714 59.1106C93.4931 59.1106 94.8311 57.8229 94.8311 55.9419ZM86.2635 55.9419C86.2635 52.9998 88.5688 50.8205 91.714 50.8205C94.8457 50.8205 97.1645 52.9849 97.1645 55.9419C97.1645 58.8984 94.8457 61.0629 91.714 61.0629C88.5688 61.0629 86.2635 58.8845 86.2635 55.9419Z" fill="white"/>
<path d="M106.267 52.8578H101.528L101.543 60.893H99.2518V50.9903H106.281L106.267 52.8578Z" fill="white"/>
<path d="M108.045 50.9902H110.335V60.8929H108.045V50.9902Z" fill="white"/>
<path d="M113.023 54.4751H115.329V60.8929H113.023V54.4751Z" fill="white"/>
<path d="M81.2017 4.5209C81.2017 3.23849 80.1057 2.19861 78.7536 2.19861C77.402 2.19861 76.3065 3.23849 76.3065 4.5209C76.3065 5.8033 77.402 6.8427 78.7536 6.8427C80.1057 6.8427 81.2017 5.8033 81.2017 4.5209Z" fill="#F89820"/>
<path d="M128.408 18.9755H27.424C26.7041 17.9534 25.5123 17.2836 24.1616 17.2836C22.811 17.2836 21.6191 17.9534 20.8988 18.9755H10.4999V23.5109H20.8988C21.4028 24.2254 22.1357 24.7678 22.9935 25.0291V49.3794H25.3298V25.0291C26.1876 24.7678 26.9205 24.2254 27.424 23.5109H128.408V18.9755Z" fill="#F89820"/>
<path d="M22.9939 60.8929H25.3302V54.2556H22.9939V60.8929Z" fill="#F89820"/>
<path d="M115.231 48.7117C114.51 48.7117 113.874 49.0427 113.445 49.5528C114.008 49.8064 114.383 50.3578 114.383 51.0339C114.383 51.7095 114.008 52.261 113.445 52.5151C113.874 53.0247 114.51 53.3557 115.231 53.3557C116.521 53.3557 117.567 52.3163 117.567 51.0339C117.567 49.7515 116.521 48.7117 115.231 48.7117Z" fill="#F89820"/>
<path d="M111.744 51.034C111.744 50.4537 112.185 50.0577 112.74 50.0577C113.296 50.0577 113.722 50.4537 113.722 51.034C113.722 51.6134 113.296 52.0099 112.74 52.0099C112.185 52.0099 111.744 51.6134 111.744 51.034Z" fill="white"/>
<path d="M28.3311 21.383C28.3311 19.0934 26.464 17.2369 24.1606 17.2369C21.8568 17.2369 19.9901 19.0934 19.9901 21.383C19.9901 23.6725 21.8568 25.5285 24.1606 25.5285C26.464 25.5285 28.3311 23.6725 28.3311 21.383Z" fill="#F89820"/>
</svg>
