<svg width="354" height="655" viewBox="0 0 354 655" fill="none" xmlns="http://www.w3.org/2000/svg">
<path d="M125.523 269.579L115.078 280.346L125.523 269.579ZM5.34514 524.95C-0.994926 530.282 -1.81194 539.744 3.52029 546.084L90.414 649.401C95.7462 655.742 105.209 656.559 111.549 651.226C117.889 645.894 118.706 636.432 113.373 630.092L36.1346 538.254L127.972 461.015C134.312 455.683 135.129 446.221 129.797 439.881C124.465 433.541 115.003 432.724 108.663 438.056L5.34514 524.95ZM72.0188 -21C58.4884 -27.4753 58.4851 -27.4684 58.4815 -27.4607C58.4799 -27.4574 58.4759 -27.4491 58.4727 -27.4424C58.4663 -27.4289 58.4587 -27.4129 58.4499 -27.3944C58.4324 -27.3574 58.4102 -27.3104 58.3835 -27.2536C58.3301 -27.1398 58.2587 -26.9865 58.1704 -26.7944C57.9938 -26.4102 57.7494 -25.8706 57.4461 -25.1816C56.8396 -23.804 55.9972 -21.8277 54.9901 -19.3016C52.977 -14.252 50.2998 -6.98918 47.5348 2.09442C42.0145 20.2291 36.0866 45.8082 34.4749 75.6392C31.2384 135.545 45.4808 212.832 115.078 280.346L125.523 269.579L135.967 258.812C74.0509 198.75 61.5414 130.747 64.4313 77.2576C65.8828 50.3909 71.2378 27.2458 76.2345 10.8307C78.728 2.63942 81.1179 -3.82904 82.8572 -8.19201C83.7264 -10.3722 84.4314 -12.0225 84.9035 -13.0949C85.1395 -13.6309 85.3171 -14.0222 85.4276 -14.2626C85.4828 -14.3828 85.5213 -14.4652 85.5419 -14.5092C85.5523 -14.5311 85.5581 -14.5435 85.5593 -14.5461C85.56 -14.5474 85.5594 -14.5463 85.5577 -14.5427C85.5569 -14.5409 85.5547 -14.5364 85.5543 -14.5355C85.5518 -14.5304 85.5491 -14.5247 72.0188 -21ZM125.523 269.579L115.078 280.346C146.942 311.255 162.923 342.248 168.076 370.626C173.223 398.974 167.767 425.768 154.975 448.825C129.13 495.408 73.446 526.42 16.2904 521.485L15 536.429L13.7096 551.374C82.6983 557.33 149.644 520.269 181.208 463.379C197.12 434.699 204.064 400.907 197.593 365.266C191.127 329.655 171.471 293.254 135.967 258.812L125.523 269.579Z" fill="#F89820" fill-opacity="0.8"/>
<path d="M351.772 197.423C355.957 203.925 354.079 212.588 347.577 216.772L241.626 284.966C235.124 289.151 226.461 287.272 222.277 280.771C218.092 274.269 219.97 265.606 226.472 261.421L320.651 200.805L260.034 106.626C255.849 100.124 257.728 91.4613 264.229 87.2766C270.731 83.0919 279.394 84.9702 283.579 91.4719L351.772 197.423ZM185 30.1728H199C199 61.7899 202.667 94.447 221.534 122.729C240.161 150.651 275.22 176.629 342.966 191.318L340 205L337.034 218.682C264.48 202.951 222.039 173.941 198.241 138.267C174.683 102.952 171 63.4056 171 30.1728H185ZM185 30.1728H171V-31H185H199V30.1728H185Z" fill="#F89820" fill-opacity="0.8"/>
</svg>
