<svg xmlns="http://www.w3.org/2000/svg" xmlns:xlink="http://www.w3.org/1999/xlink"><symbol id="sprite-arrow-btn" viewBox="0 0 24 24"><g><path d="M.5 22.028h23v2.043H.5z"/><path d="M7.462 2.043h12.462L3.544 18.046l1.479 1.445L21.402 3.488v12.175h2.09V0H7.463z"/></g></symbol><use xlink:href="#sprite-arrow-btn" width="24" height="24" y="0"/><view id="sprite-arrow-btn-view" viewBox="0 0 24 24"/><symbol id="sprite-arrow-slider" viewBox="0 0 24 24"><path d="M5 11h14a1 1 0 0 1 0 2H5a1 1 0 0 1 0-2"/><path d="m12.707 4.293 7 7a1 1 0 0 1 0 1.414l-7 7a1 1 0 0 1-1.414-1.414L17.586 12l-6.293-6.293a1 1 0 0 1 1.414-1.414"/></symbol><use xlink:href="#sprite-arrow-slider" width="24" height="24" y="24"/><view id="sprite-arrow-slider-view" viewBox="0 24 24 24"/><symbol id="sprite-arrow-spollers" viewBox="0 0 18 10"><path d="M2.207.543 9 7.336 15.793.543a1 1 0 0 1 1.414 1.414l-7.5 7.5a1 1 0 0 1-1.414 0l-7.5-7.5A1 1 0 0 1 2.207.543"/></symbol><use xlink:href="#sprite-arrow-spollers" width="18" height="10" y="48"/><view id="sprite-arrow-spollers-view" viewBox="0 48 18 10"/><symbol id="sprite-close" viewBox="0 0 24 24"><path d="m18.707 6.707-12 12a1 1 0 0 1-1.414-1.414l12-12a1 1 0 0 1 1.414 1.414"/><path d="m6.707 5.293 12 12a1 1 0 0 1-1.414 1.414l-12-12a1 1 0 0 1 1.414-1.414"/></symbol><use xlink:href="#sprite-close" width="24" height="24" y="58"/><view id="sprite-close-view" viewBox="0 58 24 24"/><symbol id="sprite-telegram" viewBox="0 0 30 30"><path d="M15.033 30h-.066C6.714 30 0 23.286 0 15.033v-.066C0 6.714 6.714 0 14.967 0h.066C23.286 0 30 6.714 30 14.967v.066C30 23.286 23.286 30 15.033 30m-.066-28.985c-7.693 0-13.952 6.259-13.952 13.952v.066c0 7.693 6.259 13.952 13.952 13.952h.066c7.693 0 13.952-6.259 13.952-13.952v-.066c0-7.693-6.259-13.952-13.952-13.952z"/><path d="m5.998 14.505.12-.058c.69-.318 1.387-.617 2.083-.915.038 0 .101-.044.137-.058l.161-.07.31-.132.62-.265 1.24-.531 2.48-1.062 2.482-1.06 2.48-1.062 2.481-1.061c.184-.08.383-.197.58-.232.166-.03.327-.086.494-.118.315-.06.664-.084.966.047q.159.07.282.19c.383.38.33 1.003.248 1.538q-.847 5.584-1.697 11.169c-.078.51-.183 1.071-.586 1.394-.342.273-.827.303-1.248.188-.422-.117-.794-.362-1.158-.602L13.936 18.8c-.36-.238-.76-.548-.756-.98.002-.26.158-.492.316-.698 1.314-1.714 3.21-2.892 4.62-4.527.2-.23.356-.646.083-.78-.163-.079-.35.029-.498.131l-5.592 3.886c-.608.422-1.246.857-1.98.96-.655.094-1.315-.09-1.95-.276a96 96 0 0 1-1.592-.482c-.281-.088-.572-.182-.79-.38-.216-.198-.341-.531-.21-.795.082-.166.241-.27.409-.356z"/></symbol><use xlink:href="#sprite-telegram" width="30" height="30" y="82"/><view id="sprite-telegram-view" viewBox="0 82 30 30"/><symbol id="sprite-viber" viewBox="0 0 30 30"><path d="M15.033 30h-.066C6.714 30 0 23.286 0 15.033v-.066C0 6.714 6.714 0 14.967 0h.066C23.286 0 30 6.714 30 14.967v.066C30 23.286 23.286 30 15.033 30m-.066-28.985c-7.693 0-13.952 6.259-13.952 13.952v.066c0 7.693 6.259 13.952 13.952 13.952h.066c7.693 0 13.952-6.259 13.952-13.952v-.066c0-7.693-6.259-13.952-13.952-13.952z"/><path d="M20.045 5.951a26 26 0 0 0-9.651 0c-1.405.3-3.176 1.984-3.482 3.307a18.7 18.7 0 0 0 0 7.817c.367 1.323 2.138 3.006 3.482 3.307.061 0 .122.06.122.12v3.789c0 .18.245.3.367.12l1.832-1.864s1.466-1.503 1.71-1.744c0 0 .061-.06.123-.06 1.832.06 3.726-.12 5.558-.421 1.405-.3 3.176-1.984 3.482-3.307.55-2.586.55-5.232 0-7.817-.367-1.263-2.138-2.946-3.543-3.247m.061 11.304c-.305.602-.672 1.083-1.283 1.383l-.55.18a8 8 0 0 1-.61-.18c-1.955-.781-3.787-1.864-5.253-3.427a14.5 14.5 0 0 1-2.016-3.007c-.244-.54-.489-1.022-.672-1.563-.183-.481.122-.962.428-1.323.305-.36.672-.601 1.1-.781.305-.18.61-.06.854.18.489.601.978 1.203 1.344 1.864.244.42.183.902-.244 1.203-.122.06-.184.12-.306.24-.06.06-.183.12-.244.24a.58.58 0 0 0-.061.542c.489 1.383 1.405 2.465 2.81 3.066.244.12.427.18.733.18.427-.06.61-.54.916-.78.305-.242.672-.242 1.038-.061.306.18.611.42.978.661.305.24.61.421.916.662.183.12.244.42.122.721m-2.565-4.51c-.123 0-.061 0 0 0-.245 0-.306-.12-.367-.3 0-.12 0-.3-.061-.42a1.14 1.14 0 0 0-.428-.662l-.366-.18c-.183-.06-.305-.06-.489-.06-.183-.061-.244-.181-.244-.362 0-.12.183-.24.305-.24.978.06 1.71.601 1.833 1.744v.24c0 .12-.061.24-.183.24M16.93 10.1c-.306-.12-.611-.24-.978-.3-.122 0-.305-.06-.427-.06-.183 0-.306-.121-.245-.302 0-.18.123-.3.306-.24.61.06 1.16.18 1.71.42 1.1.542 1.71 1.444 1.894 2.647v.781c-.061.24-.489.3-.55 0 0-.06-.061-.18-.061-.24 0-.541-.122-1.083-.367-1.564-.366-.54-.794-.902-1.282-1.142m3.298 3.608c-.183 0-.305-.18-.305-.361 0-.36-.061-.722-.122-1.082-.245-1.925-1.833-3.488-3.726-3.789-.306-.06-.611-.06-.855-.12-.184 0-.428 0-.49-.24-.06-.18.123-.361.306-.361h.122c2.505.06.123 0 0 0 2.566.06 4.704 1.744 5.131 4.27.061.42.122.84.122 1.322.123.18 0 .36-.183.36"/></symbol><use xlink:href="#sprite-viber" width="30" height="30" y="112"/><view id="sprite-viber-view" viewBox="0 112 30 30"/></svg>